<svg xmlns="http://www.w3.org/2000/svg" width="72" height="72" viewBox="0 0 256 256"><g stroke-miterlimit="10" font-family="none" font-size="none" font-weight="none" text-anchor="none"><path fill="none" fill-opacity="0" d="M-9.634 265.634V-9.634h275.268v275.268z" style="mix-blend-mode:normal" transform="matrix(.93 0 0 .93 8.96 8.96)"/><path fill="#333" d="m7.869 11.299-4.056 2.087A1.5 1.5 0 0 0 3 14.72v.78A1.5 1.5 0 0 0 4.5 17a.5.5 0 0 1 0 1A2.5 2.5 0 0 1 2 15.5v-.78a2.5 2.5 0 0 1 1.356-2.223l3.358-1.728a5 5 0 1 1 7.424-6.576.5.5 0 0 1-.827.562 4 4 0 1 0-5.39 5.663.5.5 0 0 1-.052.88zm4.092 4.268L7.88 17.422A1.5 1.5 0 0 0 7 18.788v.712A1.5 1.5 0 0 0 8.5 21h11a1.5 1.5 0 0 0 1.5-1.5v-.712a1.5 1.5 0 0 0-.88-1.366l-4.081-1.855A4.982 4.982 0 0 1 14 16a4.982 4.982 0 0 1-2.039-.433zm-1.039-.626a5 5 0 1 1 6.156 0l3.457 1.57A2.5 2.5 0 0 1 22 18.789v.712a2.5 2.5 0 0 1-2.5 2.5h-11A2.5 2.5 0 0 1 6 19.5v-.712a2.5 2.5 0 0 1 1.465-2.276l3.457-1.571zM14 15a4 4 0 1 0 0-8 4 4 0 0 0 0 8z" style="mix-blend-mode:normal" transform="matrix(9.92 0 0 9.92 8.96 8.96)"/></g></svg>