<svg xmlns="http://www.w3.org/2000/svg" xmlns:xlink="http://www.w3.org/1999/xlink" viewBox="0,0,256,256" width="72px" height="72px" fill-rule="nonzero"><g transform="translate(-102.4,-102.4) scale(1.8,1.8)"><g fill-opacity="0" fill="#ffffff" fill-rule="nonzero" stroke="none" stroke-width="1" stroke-linecap="butt" stroke-linejoin="miter" stroke-miterlimit="10" stroke-dasharray="" stroke-dashoffset="0" font-family="none" font-weight="none" font-size="none" text-anchor="none" style="mix-blend-mode: normal"><path d="M56.88889,199.11111v-142.22222h142.22222v142.22222z" id="bgRectangle"></path></g><g fill="#000000" fill-rule="nonzero" stroke="none" stroke-width="1" stroke-linecap="butt" stroke-linejoin="miter" stroke-miterlimit="10" stroke-dasharray="" stroke-dashoffset="0" font-family="none" font-weight="none" font-size="none" text-anchor="none" style="mix-blend-mode: normal"><g transform="scale(0.4183,0.4183)"><path transform="translate(0,612) scale(0.1,-0.1)" d="M3596,4325c-23,-8 -67,-41 -105,-78c-158,-152 -329,-288 -541,-426c-153,-101 -289,-171 -411,-213l-94,-32l-300,-3c-297,-4 -300,-4 -352,-29c-29,-14 -70,-45 -92,-70c-67,-76 -71,-100 -71,-421c0,-283 0,-284 25,-338c37,-78 144,-164 205,-165c12,0 37,-65 94,-242c121,-377 129,-392 211,-429c97,-44 213,-13 271,73c56,82 54,107 -22,344c-90,281 -88,253 -18,247c247,-21 719,-310 1094,-669c82,-78 125,-98 185,-84c48,11 82,34 105,73c19,30 20,53 20,413c0,289 3,384 13,395c6,8 31,27 55,42c60,39 79,56 117,107c97,131 100,329 8,467c-35,54 -75,89 -150,137l-43,26v389c0,386 0,388 -23,421c-41,62 -114,88 -181,65zM3678,4208c17,-17 17,-2279 0,-2296c-24,-24 -53,-10 -142,71c-349,318 -705,549 -989,644c-80,26 -88,27 -377,30c-178,2 -306,8 -322,15c-39,15 -96,81 -103,120c-3,18 -5,150 -3,294c3,259 3,261 28,297c48,71 69,76 383,79l277,3v-325c0,-179 4,-330 8,-336c17,-25 46,-33 74,-18l28,14l2,347l3,346l55,19c233,79 665,368 950,636c74,70 104,84 128,60zM3855,3278c85,-74 117,-211 75,-320c-24,-64 -99,-156 -118,-144c-15,9 -16,496 -2,496c5,0 25,-14 45,-32zM2287,2329c39,-118 71,-232 72,-254c1,-48 -17,-78 -59,-95c-39,-16 -103,1 -124,33c-19,28 -178,515 -172,525c2,4 51,7 108,6l103,-1zM4249,3513c-92,-89 -105,-116 -73,-147c29,-30 57,-17 147,65c70,65 87,86 87,109c0,34 -23,60 -52,60c-12,0 -56,-35 -109,-87zM4283,3110c-46,-18 -37,-93 12,-106c13,-3 70,-4 125,-2c87,2 104,6 116,22c18,25 18,47 0,72c-13,17 -28,19 -123,21c-59,1 -118,-3 -130,-7zM4176,2754c-17,-16 -21,-52 -8,-69c30,-41 173,-165 190,-165c28,0 52,26 52,58c1,21 -19,45 -87,109c-90,85 -117,97 -147,67z"></path></g></g></g></svg>