<svg xmlns="http://www.w3.org/2000/svg" width="72" height="72" viewBox="0 0 256 256"><g stroke-miterlimit="10" font-family="none" font-size="none" font-weight="none" text-anchor="none"><path fill="none" fill-opacity="0" d="M52.706 203.294V52.706h150.588v150.588z" style="mix-blend-mode:normal" transform="matrix(1.7 0 0 1.7 -89.6 -89.6)"/><path d="M3596 4325c-23-8-67-41-105-78-158-152-329-288-541-426-153-101-289-171-411-213l-94-32-300-3c-297-4-300-4-352-29-29-14-70-45-92-70-67-76-71-100-71-421 0-283 0-284 25-338 37-78 144-164 205-165 12 0 37-65 94-242 121-377 129-392 211-429 97-44 213-13 271 73 56 82 54 107-22 344-90 281-88 253-18 247 247-21 719-310 1094-669 82-78 125-98 185-84 48 11 82 34 105 73 19 30 20 53 20 413 0 289 3 384 13 395 6 8 31 27 55 42 60 39 79 56 117 107 97 131 100 329 8 467-35 54-75 89-150 137l-43 26v389c0 386 0 388-23 421-41 62-114 88-181 65zm82-117c17-17 17-2279 0-2296-24-24-53-10-142 71-349 318-705 549-989 644-80 26-88 27-377 30-178 2-306 8-322 15-39 15-96 81-103 120-3 18-5 150-3 294 3 259 3 261 28 297 48 71 69 76 383 79l277 3v-325c0-179 4-330 8-336 17-25 46-33 74-18l28 14 2 347 3 346 55 19c233 79 665 368 950 636 74 70 104 84 128 60zm177-930c85-74 117-211 75-320-24-64-99-156-118-144-15 9-16 496-2 496 5 0 25-14 45-32zm-1568-949c39-118 71-232 72-254 1-48-17-78-59-95-39-16-103 1-124 33-19 28-178 515-172 525 2 4 51 7 108 6l103-1zm1962 1184c-92-89-105-116-73-147 29-30 57-17 147 65 70 65 87 86 87 109 0 34-23 60-52 60-12 0-56-35-109-87zm34-403c-46-18-37-93 12-106 13-3 70-4 125-2 87 2 104 6 116 22 18 25 18 47 0 72-13 17-28 19-123 21-59 1-118-3-130-7zm-107-356c-17-16-21-52-8-69 30-41 173-165 190-165 28 0 52 26 52 58 1 21-19 45-87 109-90 85-117 97-147 67z" style="mix-blend-mode:normal" transform="matrix(.07111 0 0 -.07111 -89.6 345.6)"/></g></svg>