<svg xmlns="http://www.w3.org/2000/svg" xmlns:xlink="http://www.w3.org/1999/xlink" viewBox="0,0,256,256" width="72px" height="72px" fill-rule="nonzero"><g transform=""><g fill-opacity="0" fill="#ffffff" fill-rule="nonzero" stroke="none" stroke-width="1" stroke-linecap="butt" stroke-linejoin="miter" stroke-miterlimit="10" stroke-dasharray="" stroke-dashoffset="0" font-family="none" font-weight="none" font-size="none" text-anchor="none" style="mix-blend-mode: normal"><path d="M0,256v-256h256v256z" id="bgRectangle"></path></g><g fill="#ff0000" fill-rule="nonzero" stroke="none" stroke-width="1" stroke-linecap="butt" stroke-linejoin="miter" stroke-miterlimit="10" stroke-dasharray="" stroke-dashoffset="0" font-family="none" font-weight="none" font-size="none" text-anchor="none" style="mix-blend-mode: normal"><g transform="scale(10.66667,10.66667)"><path d="M14.04251,13.56514c-0.62362,0.27944 -1.31492,0.43486 -2.04251,0.43486c-0.72613,0 -1.41611,-0.15479 -2.03873,-0.43316l-4.08197,1.85544c-0.53549,0.24341 -0.8793,0.77733 -0.8793,1.36555v0.71217c0,0.82843 0.67157,1.5 1.5,1.5h5c0.27614,0 0.5,0.22386 0.5,0.5c0,0.27614 -0.22386,0.5 -0.5,0.5h-5c-1.38071,0 -2.5,-1.11929 -2.5,-2.5v-0.71217c0,-0.98036 0.57301,-1.87024 1.46549,-2.27592l3.45667,-1.57121c-1.17007,-0.91516 -1.92216,-2.3401 -1.92216,-3.9407c0,-2.76142 2.23858,-5 5,-5c2.76142,0 5,2.23858 5,5c0,1.59292 -0.74489,3.01187 -1.90535,3.9275l2.60196,1.11278c0.2539,0.10858 0.3717,0.40243 0.26311,0.65633c-0.10858,0.2539 -0.40243,0.3717 -0.65633,0.26311l-3.26088,-1.39458zM12,13c2.20914,0 4,-1.79086 4,-4c0,-2.20914 -1.79086,-4 -4,-4c-2.20914,0 -4,1.79086 -4,4c0,2.20914 1.79086,4 4,4zM14.5,20c-0.27614,0 -0.5,-0.22386 -0.5,-0.5c0,-0.27614 0.22386,-0.5 0.5,-0.5h6c0.27614,0 0.5,0.22386 0.5,0.5c0,0.27614 -0.22386,0.5 -0.5,0.5z"></path></g></g></g></svg>