<svg xmlns="http://www.w3.org/2000/svg" width="72" height="72" viewBox="0 0 256 256"><g stroke-miterlimit="10" font-family="none" font-size="none" font-weight="none" text-anchor="none"><path fill="none" fill-opacity="0" d="M-9.634 265.634V-9.634h275.268v275.268z" style="mix-blend-mode:normal" transform="matrix(.93 0 0 .93 8.96 8.96)"/><path d="M14.043 13.565A4.982 4.982 0 0 1 12 14a4.982 4.982 0 0 1-2.039-.433L5.88 15.422A1.5 1.5 0 0 0 5 16.788v.712A1.5 1.5 0 0 0 6.5 19h5a.5.5 0 0 1 0 1h-5A2.5 2.5 0 0 1 4 17.5v-.712a2.5 2.5 0 0 1 1.465-2.276l3.457-1.571a5 5 0 1 1 6.172-.013l2.603 1.112a.5.5 0 1 1-.394.92l-3.26-1.395zM12 13a4 4 0 1 0 0-8 4 4 0 0 0 0 8zm2.5 7a.5.5 0 0 1 0-1h6a.5.5 0 0 1 0 1z" style="mix-blend-mode:normal" transform="matrix(9.92 0 0 9.92 8.96 8.96)"/></g></svg>