<svg xmlns="http://www.w3.org/2000/svg" xmlns:xlink="http://www.w3.org/1999/xlink" viewBox="0,0,256,256" width="72px" height="72px" fill-rule="nonzero"><g transform="translate(51.2,51.2) scale(0.6,0.6)"><g fill-opacity="0" fill="#ffffff" fill-rule="nonzero" stroke="none" stroke-width="1" stroke-linecap="butt" stroke-linejoin="miter" stroke-miterlimit="10" stroke-dasharray="" stroke-dashoffset="0" font-family="none" font-weight="none" font-size="none" text-anchor="none" style="mix-blend-mode: normal"><path transform="translate(-85.33333,-85.33333) scale(1.66667,1.66667)" d="M0,256v-256h256v256z" id="bgRectangle"></path></g><g fill="#198f08" fill-rule="nonzero" stroke="none" stroke-width="1" stroke-linecap="butt" stroke-linejoin="miter" stroke-miterlimit="10" stroke-dasharray="" stroke-dashoffset="0" font-family="none" font-weight="none" font-size="none" text-anchor="none" style="mix-blend-mode: normal"><path transform="translate(-85.33333,-85.33333)" d="M64,426.66667c-35.34622,0 -64,-28.65378 -64,-64v-298.66667c0,-35.34622 28.65378,-64 64,-64h298.66667c35.34622,0 64,28.65378 64,64v298.66667c0,35.34622 -28.65378,64 -64,64z" id="shape"></path></g><g fill="none" fill-rule="evenodd" stroke="#ffffff" stroke-width="2" stroke-linecap="butt" stroke-linejoin="miter" stroke-miterlimit="10" stroke-dasharray="" stroke-dashoffset="0" font-family="none" font-weight="none" font-size="none" text-anchor="none" style="mix-blend-mode: normal"><g transform="translate(20,0) scale(4,4)"><g transform="translate(1,1)"><path d="M48,13.8l-4.1,45.4c0,1.5 -1.2,2.8 -2.8,2.8h-30.2c-1.5,0 -2.8,-1.2 -2.8,-2.8l-4.1,-45.4"></path><path d="M8.8,13.9h-6.2c-1.4,0 -2.6,-1.2 -2.6,-2.6v-2.6c0,-1.5 1.2,-2.6 2.6,-2.6h46.7c1.4,0 2.6,1.2 2.6,2.6v2.6c0,1.5 -1.2,2.6 -2.6,2.6h-6.2"></path><path d="M25.9,19v35"></path><path d="M14.9,19l1.4,34.9"></path><path d="M36.9,19.1l-1.3,34.8"></path><rect x="19" y="0" width="14" height="6"></rect></g></g></g></g></svg>