<svg xmlns="http://www.w3.org/2000/svg" width="72" height="72" viewBox="0 0 256 256"><g stroke-miterlimit="10" font-family="none" font-size="none" font-weight="none" text-anchor="none"><path fill="none" fill-opacity="0" d="M0 256V0h256v256z" style="mix-blend-mode:normal"/><path fill="#85378c" d="M38.4 256C17.192 256 0 238.808 0 217.6V38.4C0 17.192 17.192 0 38.4 0h179.2C238.808 0 256 17.192 256 38.4v179.2c0 21.208-17.192 38.4-38.4 38.4z" style="mix-blend-mode:normal"/><g fill="none" stroke-linecap="none" stroke-linejoin="none" stroke-width="none" style="mix-blend-mode:normal"><path d="M0 256V0h256v256z"/><path d="M-12.8 268.8V-12.8h281.6v281.6z"/><path d="M-12.8 268.8V-12.8h281.6v281.6z"/><path d="M29.44 268.8c-23.329 0-42.24-18.911-42.24-42.24V29.44c0-23.329 18.911-42.24 42.24-42.24h197.12c23.329 0 42.24 18.911 42.24 42.24v197.12c0 23.329-18.911 42.24-42.24 42.24z"/><path fill="#e3e2e3" stroke="#1f212b" stroke-linecap="butt" stroke-linejoin="miter" stroke-width="5.632000000000001" d="M181.085 218.112H74.914c-20.449 0-37.027-16.577-37.027-37.027V74.914c0-20.449 16.577-37.027 37.027-37.027h106.17c20.449 0 37.027 16.577 37.027 37.027v106.17c0 20.449-16.577 37.027-37.027 37.027z"/><path stroke="#1f212b" stroke-linecap="round" stroke-linejoin="round" stroke-width="2.8160000000000003" d="M76.175 204.032c-13.37 0-24.207-10.835-24.207-24.207v-88.73m48.291 112.937H86.24m51.767 0h-29.659m49.61-152.064h21.868c13.37 0 24.207 10.835 24.207 24.207v103.653c0 13.368-10.835 24.204-24.207 24.204H148.79M129.377 51.968h16.178m-55.002 0h30.196M51.968 76.175c0-13.37 10.835-24.207 24.207-24.207"/><path fill="#e85654" d="M93.085 143.488H78.434a8.164 8.164 0 0 1-8.163-8.163v-14.651a8.164 8.164 0 0 1 8.163-8.163h14.652a8.164 8.164 0 0 1 8.163 8.163v14.65a8.164 8.164 0 0 1-8.163 8.163z"/><path fill="#9898ad" d="M135.325 143.488h-14.651a8.164 8.164 0 0 1-8.163-8.163v-14.651a8.164 8.164 0 0 1 8.163-8.163h14.65a8.164 8.164 0 0 1 8.163 8.163v14.65a8.164 8.164 0 0 1-8.163 8.163z"/><path fill="#ee5490" d="M177.565 143.488h-14.651a8.164 8.164 0 0 1-8.163-8.163v-14.651a8.164 8.164 0 0 1 8.163-8.163h14.65a8.164 8.164 0 0 1 8.163 8.163v14.65a8.164 8.164 0 0 1-8.163 8.163z"/><path fill="#ae5ca3" d="M93.085 185.728H78.434a8.164 8.164 0 0 1-8.163-8.163v-14.651a8.164 8.164 0 0 1 8.163-8.163h14.652a8.164 8.164 0 0 1 8.163 8.163v14.65a8.164 8.164 0 0 1-8.163 8.163z"/><path fill="#09ace3" d="M135.325 185.728h-14.651a8.164 8.164 0 0 1-8.163-8.163v-14.651a8.164 8.164 0 0 1 8.163-8.163h14.65a8.164 8.164 0 0 1 8.163 8.163v14.65a8.164 8.164 0 0 1-8.163 8.163z"/><path fill="#00ab9b" d="M177.565 185.728h-14.651a8.164 8.164 0 0 1-8.163-8.163v-14.651a8.164 8.164 0 0 1 8.163-8.163h14.65a8.164 8.164 0 0 1 8.163 8.163v14.65a8.164 8.164 0 0 1-8.163 8.163z"/><path fill="#8cc78c" d="M93.085 101.248H78.434a8.164 8.164 0 0 1-8.163-8.163V78.434a8.164 8.164 0 0 1 8.163-8.163h14.652a8.164 8.164 0 0 1 8.163 8.163v14.652a8.164 8.164 0 0 1-8.163 8.163z"/><path fill="#f8e55b" d="M135.325 101.248h-14.651a8.164 8.164 0 0 1-8.163-8.163V78.434a8.164 8.164 0 0 1 8.163-8.163h14.65a8.164 8.164 0 0 1 8.163 8.163v14.652a8.164 8.164 0 0 1-8.163 8.163z"/><path fill="#f5905f" d="M177.565 101.248h-14.651a8.164 8.164 0 0 1-8.163-8.163V78.434a8.164 8.164 0 0 1 8.163-8.163h14.65a8.164 8.164 0 0 1 8.163 8.163v14.652a8.164 8.164 0 0 1-8.163 8.163z"/><path stroke="#1f212b" stroke-linecap="round" stroke-linejoin="round" stroke-width="2.8160000000000003" d="M93.085 143.488H78.434a8.164 8.164 0 0 1-8.163-8.163v-14.651a8.164 8.164 0 0 1 8.163-8.163h14.652a8.164 8.164 0 0 1 8.163 8.163v14.65a8.164 8.164 0 0 1-8.163 8.163zm36.563-30.976h5.676a8.164 8.164 0 0 1 8.164 8.163v14.65a8.164 8.164 0 0 1-8.163 8.163h-14.651a8.164 8.164 0 0 1-8.163-8.163v-14.651a8.164 8.164 0 0 1 8.163-8.163m56.89 30.977h-14.65a8.164 8.164 0 0 1-8.163-8.163v-14.651a8.164 8.164 0 0 1 8.163-8.163h14.65a8.164 8.164 0 0 1 8.163 8.163v14.65a8.164 8.164 0 0 1-8.163 8.163zm-84.48 42.24h-14.65a8.164 8.164 0 0 1-8.163-8.163v-14.651a8.164 8.164 0 0 1 8.163-8.163h14.652a8.164 8.164 0 0 1 8.163 8.163v14.65a8.164 8.164 0 0 1-8.163 8.163zm48.47-2.886a8.151 8.151 0 0 1-6.23 2.886h-14.65a8.164 8.164 0 0 1-8.163-8.163v-14.651a8.164 8.164 0 0 1 8.163-8.163h14.65a8.164 8.164 0 0 1 8.163 8.163v10.412m34.078 12.402h-14.651a8.164 8.164 0 0 1-8.163-8.163v-14.651a8.164 8.164 0 0 1 8.163-8.163h14.65a8.164 8.164 0 0 1 8.163 8.163v14.65a8.164 8.164 0 0 1-8.163 8.163zm-76.317-92.643a8.164 8.164 0 0 1-8.163 8.163H78.434a8.164 8.164 0 0 1-8.163-8.163V78.434a8.164 8.164 0 0 1 8.163-8.163h14.652a8.164 8.164 0 0 1 8.163 8.163v7.803m34.076 15.011h-14.651a8.164 8.164 0 0 1-8.163-8.163V78.434a8.164 8.164 0 0 1 8.163-8.163h14.65a8.164 8.164 0 0 1 8.163 8.163v14.652a8.164 8.164 0 0 1-8.163 8.163zm32.068 0h-4.477a8.164 8.164 0 0 1-8.164-8.163V78.434a8.164 8.164 0 0 1 8.163-8.163h14.65a8.164 8.164 0 0 1 8.163 8.163v14.652a8.164 8.164 0 0 1-8.163 8.163"/></g></g></svg>