<svg xmlns="http://www.w3.org/2000/svg" xmlns:xlink="http://www.w3.org/1999/xlink" viewBox="0,0,256,256" width="72px" height="72px" fill-rule="nonzero"><g transform=""><g fill-opacity="0" fill="#ffffff" fill-rule="nonzero" stroke="none" stroke-width="1" stroke-linecap="butt" stroke-linejoin="miter" stroke-miterlimit="10" stroke-dasharray="" stroke-dashoffset="0" font-family="none" font-weight="none" font-size="none" text-anchor="none" style="mix-blend-mode: normal"><path d="M0,256v-256h256v256z" id="bgRectangle"></path></g><g fill="#20c997" fill-rule="nonzero" stroke="none" stroke-width="1" stroke-linecap="butt" stroke-linejoin="miter" stroke-miterlimit="10" stroke-dasharray="" stroke-dashoffset="0" font-family="none" font-weight="none" font-size="none" text-anchor="none" style="mix-blend-mode: normal"><path d="M38.4,256c-21.20773,0 -38.4,-17.19227 -38.4,-38.4v-179.2c0,-21.20773 17.19227,-38.4 38.4,-38.4h179.2c21.20773,0 38.4,17.19227 38.4,38.4v179.2c0,21.20773 -17.19227,38.4 -38.4,38.4z" id="shape"></path></g><g fill="none" fill-rule="nonzero" stroke="none" stroke-width="none" stroke-linecap="none" stroke-linejoin="none" stroke-miterlimit="10" stroke-dasharray="" stroke-dashoffset="0" font-family="none" font-weight="none" font-size="none" text-anchor="none" style="mix-blend-mode: normal"><g transform="scale(2.56,2.56)"><path d="M68.851,82h-37.702c-7.262,0 -13.149,-5.887 -13.149,-13.149v-37.702c0,-7.262 5.887,-13.149 13.149,-13.149h37.702c7.262,0 13.149,5.887 13.149,13.149v37.702c0,7.262 -5.887,13.149 -13.149,13.149z" fill="#e3e2e3" stroke="#1f212b" stroke-width="2" stroke-linecap="butt" stroke-linejoin="miter"></path><path d="M31.596,77c-4.748,0 -8.596,-3.848 -8.596,-8.596v-31.51" fill="none" stroke="#1f212b" stroke-width="1" stroke-linecap="round" stroke-linejoin="round"></path><path d="M40.149,77h-4.979" fill="none" stroke="#1f212b" stroke-width="1" stroke-linecap="round" stroke-linejoin="round"></path><path d="M53.553,77h-10.532" fill="none" stroke="#1f212b" stroke-width="1" stroke-linecap="round" stroke-linejoin="round"></path><path d="M60.638,23h7.766c4.748,0 8.596,3.848 8.596,8.596v36.809c0,4.747 -3.848,8.595 -8.596,8.595h-11.021" fill="none" stroke="#1f212b" stroke-width="1" stroke-linecap="round" stroke-linejoin="round"></path><path d="M50.489,23h5.745" fill="none" stroke="#1f212b" stroke-width="1" stroke-linecap="round" stroke-linejoin="round"></path><path d="M36.702,23h10.723" fill="none" stroke="#1f212b" stroke-width="1" stroke-linecap="round" stroke-linejoin="round"></path><path d="M23,31.596c0,-4.748 3.848,-8.596 8.596,-8.596" fill="none" stroke="#1f212b" stroke-width="1" stroke-linecap="round" stroke-linejoin="round"></path><path d="M37.601,55.5h-5.202c-1.601,0 -2.899,-1.298 -2.899,-2.899v-5.202c0,-1.601 1.298,-2.899 2.899,-2.899h5.202c1.601,0 2.899,1.298 2.899,2.899v5.202c0,1.601 -1.298,2.899 -2.899,2.899z" fill="#e85654" stroke="none" stroke-width="1" stroke-linecap="butt" stroke-linejoin="miter"></path><path d="M52.601,55.5h-5.202c-1.601,0 -2.899,-1.298 -2.899,-2.899v-5.202c0,-1.601 1.298,-2.899 2.899,-2.899h5.202c1.601,0 2.899,1.298 2.899,2.899v5.202c0,1.601 -1.298,2.899 -2.899,2.899z" fill="#9898ad" stroke="none" stroke-width="1" stroke-linecap="butt" stroke-linejoin="miter"></path><path d="M67.601,55.5h-5.202c-1.601,0 -2.899,-1.298 -2.899,-2.899v-5.202c0,-1.601 1.298,-2.899 2.899,-2.899h5.202c1.601,0 2.899,1.298 2.899,2.899v5.202c0,1.601 -1.298,2.899 -2.899,2.899z" fill="#ee5490" stroke="none" stroke-width="1" stroke-linecap="butt" stroke-linejoin="miter"></path><path d="M37.601,70.5h-5.202c-1.601,0 -2.899,-1.298 -2.899,-2.899v-5.202c0,-1.601 1.298,-2.899 2.899,-2.899h5.202c1.601,0 2.899,1.298 2.899,2.899v5.202c0,1.601 -1.298,2.899 -2.899,2.899z" fill="#ae5ca3" stroke="none" stroke-width="1" stroke-linecap="butt" stroke-linejoin="miter"></path><path d="M52.601,70.5h-5.202c-1.601,0 -2.899,-1.298 -2.899,-2.899v-5.202c0,-1.601 1.298,-2.899 2.899,-2.899h5.202c1.601,0 2.899,1.298 2.899,2.899v5.202c0,1.601 -1.298,2.899 -2.899,2.899z" fill="#09ace3" stroke="none" stroke-width="1" stroke-linecap="butt" stroke-linejoin="miter"></path><path d="M67.601,70.5h-5.202c-1.601,0 -2.899,-1.298 -2.899,-2.899v-5.202c0,-1.601 1.298,-2.899 2.899,-2.899h5.202c1.601,0 2.899,1.298 2.899,2.899v5.202c0,1.601 -1.298,2.899 -2.899,2.899z" fill="#00ab9b" stroke="none" stroke-width="1" stroke-linecap="butt" stroke-linejoin="miter"></path><path d="M37.601,40.5h-5.202c-1.601,0 -2.899,-1.298 -2.899,-2.899v-5.202c0,-1.601 1.298,-2.899 2.899,-2.899h5.202c1.601,0 2.899,1.298 2.899,2.899v5.202c0,1.601 -1.298,2.899 -2.899,2.899z" fill="#8cc78c" stroke="none" stroke-width="1" stroke-linecap="butt" stroke-linejoin="miter"></path><path d="M52.601,40.5h-5.202c-1.601,0 -2.899,-1.298 -2.899,-2.899v-5.202c0,-1.601 1.298,-2.899 2.899,-2.899h5.202c1.601,0 2.899,1.298 2.899,2.899v5.202c0,1.601 -1.298,2.899 -2.899,2.899z" fill="#f8e55b" stroke="none" stroke-width="1" stroke-linecap="butt" stroke-linejoin="miter"></path><path d="M67.601,40.5h-5.202c-1.601,0 -2.899,-1.298 -2.899,-2.899v-5.202c0,-1.601 1.298,-2.899 2.899,-2.899h5.202c1.601,0 2.899,1.298 2.899,2.899v5.202c0,1.601 -1.298,2.899 -2.899,2.899z" fill="#f5905f" stroke="none" stroke-width="1" stroke-linecap="butt" stroke-linejoin="miter"></path><path d="M37.601,55.5h-5.202c-1.601,0 -2.899,-1.298 -2.899,-2.899v-5.202c0,-1.601 1.298,-2.899 2.899,-2.899h5.202c1.601,0 2.899,1.298 2.899,2.899v5.202c0,1.601 -1.298,2.899 -2.899,2.899z" fill="none" stroke="#1f212b" stroke-width="1" stroke-linecap="round" stroke-linejoin="round"></path><path d="M50.585,44.5h2.016c1.601,0 2.899,1.298 2.899,2.899v5.202c0,1.601 -1.298,2.899 -2.899,2.899h-5.202c-1.601,0 -2.899,-1.298 -2.899,-2.899v-5.202c0,-1.601 1.298,-2.899 2.899,-2.899" fill="none" stroke="#1f212b" stroke-width="1" stroke-linecap="round" stroke-linejoin="round"></path><path d="M67.601,55.5h-5.202c-1.601,0 -2.899,-1.298 -2.899,-2.899v-5.202c0,-1.601 1.298,-2.899 2.899,-2.899h5.202c1.601,0 2.899,1.298 2.899,2.899v5.202c0,1.601 -1.298,2.899 -2.899,2.899z" fill="none" stroke="#1f212b" stroke-width="1" stroke-linecap="round" stroke-linejoin="round"></path><path d="M37.601,70.5h-5.202c-1.601,0 -2.899,-1.298 -2.899,-2.899v-5.202c0,-1.601 1.298,-2.899 2.899,-2.899h5.202c1.601,0 2.899,1.298 2.899,2.899v5.202c0,1.601 -1.298,2.899 -2.899,2.899z" fill="none" stroke="#1f212b" stroke-width="1" stroke-linecap="round" stroke-linejoin="round"></path><path d="M54.813,69.475c-0.532,0.627 -1.326,1.025 -2.212,1.025h-5.202c-1.601,0 -2.899,-1.298 -2.899,-2.899v-5.202c0,-1.601 1.298,-2.899 2.899,-2.899h5.202c1.601,0 2.899,1.298 2.899,2.899v3.697" fill="none" stroke="#1f212b" stroke-width="1" stroke-linecap="round" stroke-linejoin="round"></path><path d="M67.601,70.5h-5.202c-1.601,0 -2.899,-1.298 -2.899,-2.899v-5.202c0,-1.601 1.298,-2.899 2.899,-2.899h5.202c1.601,0 2.899,1.298 2.899,2.899v5.202c0,1.601 -1.298,2.899 -2.899,2.899z" fill="none" stroke="#1f212b" stroke-width="1" stroke-linecap="round" stroke-linejoin="round"></path><path d="M40.5,37.601c0,1.601 -1.298,2.899 -2.899,2.899h-5.202c-1.601,0 -2.899,-1.298 -2.899,-2.899v-5.202c0,-1.601 1.298,-2.899 2.899,-2.899h5.202c1.601,0 2.899,1.298 2.899,2.899v2.771" fill="none" stroke="#1f212b" stroke-width="1" stroke-linecap="round" stroke-linejoin="round"></path><path d="M52.601,40.5h-5.202c-1.601,0 -2.899,-1.298 -2.899,-2.899v-5.202c0,-1.601 1.298,-2.899 2.899,-2.899h5.202c1.601,0 2.899,1.298 2.899,2.899v5.202c0,1.601 -1.298,2.899 -2.899,2.899z" fill="none" stroke="#1f212b" stroke-width="1" stroke-linecap="round" stroke-linejoin="round"></path><path d="M63.989,40.5h-1.59c-1.601,0 -2.899,-1.298 -2.899,-2.899v-5.202c0,-1.601 1.298,-2.899 2.899,-2.899h5.202c1.601,0 2.899,1.298 2.899,2.899v5.202c0,1.601 -1.298,2.899 -2.899,2.899" fill="none" stroke="#1f212b" stroke-width="1" stroke-linecap="round" stroke-linejoin="round"></path></g></g></g></svg>