<svg xmlns="http://www.w3.org/2000/svg" xmlns:xlink="http://www.w3.org/1999/xlink" viewBox="0,0,256,256" width="72px" height="72px" fill-rule="nonzero"><g transform="translate(38.4,38.4) scale(0.7,0.7)"><g fill-opacity="0" fill="#ffffff" fill-rule="nonzero" stroke="none" stroke-width="1" stroke-linecap="butt" stroke-linejoin="miter" stroke-miterlimit="10" stroke-dasharray="" stroke-dashoffset="0" font-family="none" font-weight="none" font-size="none" text-anchor="none" style="mix-blend-mode: normal"><path d="M-54.85714,310.85714v-365.71429h365.71429v365.71429z" id="bgRectangle"></path></g><g fill="#81614d" fill-rule="nonzero" stroke="none" stroke-width="1" stroke-linecap="butt" stroke-linejoin="miter" stroke-miterlimit="10" stroke-dasharray="" stroke-dashoffset="0" font-family="none" font-weight="none" font-size="none" text-anchor="none" style="mix-blend-mode: normal"><path d="M0,310.85714c-30.29676,0 -54.85714,-24.56038 -54.85714,-54.85714v-256c0,-30.29676 24.56038,-54.85714 54.85714,-54.85714h256c30.29676,0 54.85714,24.56038 54.85714,54.85714v256c0,30.29676 -24.56038,54.85714 -54.85714,54.85714z" id="shape"></path></g><g fill="#ffffff" fill-rule="nonzero" stroke="none" stroke-width="1" stroke-linecap="butt" stroke-linejoin="miter" stroke-miterlimit="10" stroke-dasharray="" stroke-dashoffset="0" font-family="none" font-weight="none" font-size="none" text-anchor="none" style="mix-blend-mode: normal"><g transform="translate(-0.00051,256.00028) rotate(-90) scale(0.78792,0.78792)"><path d="M324.36,122.292c-7.444,-27.881 -22.219,-53.457 -42.726,-73.964c-31.163,-31.165 -72.599,-48.328 -116.672,-48.328c-44.073,0 -85.509,17.163 -116.673,48.328c-64.333,64.333 -64.333,169.011 0,233.344c20.505,20.506 46.081,35.281 73.963,42.728c1.279,0.342 2.579,0.509 3.869,0.509c3.927,0 7.758,-1.544 10.607,-4.395l183.746,-183.746c3.787,-3.787 5.268,-9.303 3.886,-14.476zM69.502,69.541c25.498,-25.498 59.4,-39.541 95.46,-39.541c36.06,0 69.962,14.043 95.46,39.541c10.895,10.895 19.802,23.534 26.381,37.296c-19.129,-1.826 -38.529,-0.335 -57.218,4.496c-28.381,7.336 -54.395,22.226 -75.229,43.061c-20.83,20.83 -35.719,46.839 -43.057,75.214c-4.834,18.694 -6.327,38.101 -4.501,57.234c-13.762,-6.58 -26.402,-15.488 -37.296,-26.383c-52.636,-52.636 -52.636,-138.281 0,-190.918z"></path></g></g></g></svg>