<svg xmlns="http://www.w3.org/2000/svg" width="72" height="72" viewBox="0 0 256 256"><g stroke-miterlimit="10" font-family="none" font-size="none" font-weight="none" text-anchor="none"><path fill="none" fill-opacity="0" d="M-54.857 310.857V-54.857h365.714v365.714z" style="mix-blend-mode:normal" transform="matrix(.7 0 0 .7 38.4 38.4)"/><path fill="#11bfc2" d="M0 310.857c-30.297 0-54.857-24.56-54.857-54.857V0c0-30.297 24.56-54.857 54.857-54.857h256c30.297 0 54.857 24.56 54.857 54.857v256c0 30.297-24.56 54.857-54.857 54.857z" style="mix-blend-mode:normal" transform="matrix(.7 0 0 .7 38.4 38.4)"/><path fill="#fff" d="M324.36 122.292c-7.444-27.881-22.219-53.457-42.726-73.964C250.471 17.163 209.035 0 164.962 0 120.889 0 79.453 17.163 48.289 48.328c-64.333 64.333-64.333 169.011 0 233.344 20.505 20.506 46.081 35.281 73.963 42.728a14.994 14.994 0 0 0 14.476-3.886l183.746-183.746a14.996 14.996 0 0 0 3.886-14.476zM69.502 69.541C95 44.043 128.902 30 164.962 30c36.06 0 69.962 14.043 95.46 39.541a135.285 135.285 0 0 1 26.381 37.296c-19.129-1.826-38.529-.335-57.218 4.496-28.381 7.336-54.395 22.226-75.229 43.061-20.83 20.83-35.719 46.839-43.057 75.214-4.834 18.694-6.327 38.101-4.501 57.234a135.298 135.298 0 0 1-37.296-26.383c-52.636-52.636-52.636-138.281 0-190.918z" style="mix-blend-mode:normal" transform="matrix(0 -.55154 .55154 0 38.4 217.6)"/></g></svg>