<svg xmlns="http://www.w3.org/2000/svg" width="72" height="72" viewBox="0 0 256 256"><g stroke-miterlimit="10" font-family="none" font-size="none" font-weight="none" text-anchor="none"><path fill="none" fill-opacity="0" d="M0 256V0h256v256z" style="mix-blend-mode:normal"/><g fill="none" style="mix-blend-mode:normal"><path d="M0 256V0h256v256z"/><path fill="#339af0" d="M38.4 256C17.192 256 0 238.808 0 217.6V38.4C0 17.192 17.192 0 38.4 0h179.2C238.808 0 256 17.192 256 38.4v179.2c0 21.208-17.192 38.4-38.4 38.4z"/><g fill="#fff"><path d="M128 86.933c-10.32 0-18.667 8.347-18.667 18.667a3.733 3.733 0 1 1-7.466 0c0-14.444 11.689-26.133 26.133-26.133 14.444 0 26.133 11.689 26.133 26.133 0 13.176-9.727 24.06-22.4 25.869V150.4a3.734 3.734 0 0 1-7.466 0V128a3.734 3.734 0 0 1 3.733-3.733c10.32 0 18.667-8.347 18.667-18.667 0-10.32-8.347-18.667-18.667-18.667zm0 88.63a7.467 7.467 0 1 0 0-14.933 7.467 7.467 0 0 0 0 14.933z"/><path d="M128 53.333c-41.237 0-74.667 33.43-74.667 74.667s33.43 74.667 74.667 74.667 74.667-33.43 74.667-74.667S169.237 53.333 128 53.333zM60.8 128c0-37.113 30.087-67.2 67.2-67.2 37.114 0 67.2 30.087 67.2 67.2 0 37.114-30.086 67.2-67.2 67.2-37.113 0-67.2-30.086-67.2-67.2z"/></g></g></g></svg>