<svg xmlns="http://www.w3.org/2000/svg" xmlns:xlink="http://www.w3.org/1999/xlink" viewBox="0,0,256,256" width="72px" height="72px" fill-rule="nonzero"><g transform="translate(38.4,38.4) scale(0.7,0.7)"><g fill-opacity="0" fill="#ffffff" fill-rule="nonzero" stroke="none" stroke-width="1" stroke-linecap="butt" stroke-linejoin="miter" stroke-miterlimit="10" stroke-dasharray="" stroke-dashoffset="0" font-family="none" font-weight="none" font-size="none" text-anchor="none" style="mix-blend-mode: normal"><path d="M-54.85714,310.85714v-365.71429h365.71429v365.71429z" id="bgRectangle"></path></g><g fill="#0c28ee" fill-rule="nonzero" stroke="none" stroke-width="1" stroke-linecap="butt" stroke-linejoin="miter" stroke-miterlimit="10" stroke-dasharray="" stroke-dashoffset="0" font-family="none" font-weight="none" font-size="none" text-anchor="none" style="mix-blend-mode: normal"><path d="M0,310.85714c-30.29676,0 -54.85714,-24.56038 -54.85714,-54.85714v-256c0,-30.29676 24.56038,-54.85714 54.85714,-54.85714h256c30.29676,0 54.85714,24.56038 54.85714,54.85714v256c0,30.29676 -24.56038,54.85714 -54.85714,54.85714z" id="shape"></path></g><g fill="#ffffff" fill-rule="nonzero" stroke="none" stroke-width="1" stroke-linecap="butt" stroke-linejoin="miter" stroke-miterlimit="10" stroke-dasharray="" stroke-dashoffset="0" font-family="none" font-weight="none" font-size="none" text-anchor="none" style="mix-blend-mode: normal"><g transform="scale(0.25,0.25)"><path d="M512,277.333c-58.974,0 -106.667,47.693 -106.667,106.667c0,11.782 -9.551,21.333 -21.333,21.333c-11.782,0 -21.333,-9.551 -21.333,-21.333c0,-82.538 66.795,-149.333 149.333,-149.333c82.538,0 149.333,66.796 149.333,149.333c0,75.294 -55.586,137.489 -128,147.823v108.177c0,11.78 -9.553,21.333 -21.333,21.333c-11.78,0 -21.333,-9.553 -21.333,-21.333v-128c0,-11.78 9.553,-21.333 21.333,-21.333c58.974,0 106.667,-47.693 106.667,-106.667c0,-58.974 -47.693,-106.667 -106.667,-106.667zM512,783.787c23.565,0 42.667,-19.102 42.667,-42.667c0,-23.565 -19.102,-42.667 -42.667,-42.667c-23.565,0 -42.667,19.102 -42.667,42.667c0,23.565 19.102,42.667 42.667,42.667z"></path><path d="M512,85.333c-235.642,0 -426.667,191.025 -426.667,426.667c0,235.639 191.025,426.667 426.667,426.667c235.639,0 426.667,-191.027 426.667,-426.667c0,-235.642 -191.027,-426.667 -426.667,-426.667zM128,512c0,-212.077 171.923,-384 384,-384c212.079,0 384,171.923 384,384c0,212.079 -171.921,384 -384,384c-212.077,0 -384,-171.921 -384,-384z"></path></g></g></g></svg>