<svg xmlns="http://www.w3.org/2000/svg" xmlns:xlink="http://www.w3.org/1999/xlink" viewBox="0,0,256,256" width="72px" height="72px" fill-rule="nonzero"><g transform="translate(25.6,25.6) scale(0.8,0.8)"><g fill-opacity="0" fill="#ffffff" fill-rule="nonzero" stroke="none" stroke-width="1" stroke-linecap="butt" stroke-linejoin="miter" stroke-miterlimit="10" stroke-dasharray="" stroke-dashoffset="0" font-family="none" font-weight="none" font-size="none" text-anchor="none" style="mix-blend-mode: normal"><path transform="translate(-32,-32) scale(1.25,1.25)" d="M0,256v-256h256v256z" id="bgRectangle"></path></g><g fill="#4d69e6" fill-rule="nonzero" stroke="none" stroke-width="1" stroke-linecap="butt" stroke-linejoin="miter" stroke-miterlimit="10" stroke-dasharray="" stroke-dashoffset="0" font-family="none" font-weight="none" font-size="none" text-anchor="none" style="mix-blend-mode: normal"><path transform="translate(-32,-32)" d="M48,320c-26.50967,0 -48,-21.49033 -48,-48v-224c0,-26.50967 21.49033,-48 48,-48h224c26.50967,0 48,21.49033 48,48v224c0,26.50967 -21.49033,48 -48,48z" id="shape"></path></g><g fill="#ffffff" fill-rule="nonzero" stroke="none" stroke-width="1" stroke-linecap="butt" stroke-linejoin="miter" stroke-miterlimit="10" stroke-dasharray="" stroke-dashoffset="0" font-family="none" font-weight="none" font-size="none" text-anchor="none" style="mix-blend-mode: normal"><g><path d="M222.35693,161.11682c7.53179,-21.45819 7.52387,-44.84282 -0.02246,-66.2959c-0.04486,-0.15716 -0.09932,-0.31142 -0.16308,-0.46191c-14.21584,-39.79387 -51.91056,-66.35688 -94.16742,-66.35863c-42.25686,-0.00175 -79.95378,26.55813 -94.17292,66.35082c-0.07038,0.16392 -0.12975,0.33234 -0.17773,0.50415c-7.54847,21.48446 -7.53744,44.90192 0.03125,66.37927c0.03987,0.1339 0.08647,0.2657 0.13965,0.3949c14.21098,39.79686 51.90386,66.36505 94.16189,66.37094c42.25804,0.00589 79.95832,-26.55181 94.18039,-66.3447c0.07637,-0.17483 0.14001,-0.35494 0.19043,-0.53894zM128,216.03064c-14.43311,-13.53882 -25.105,-31.73706 -30.93994,-52.03027h61.87988c-5.83494,20.29321 -16.50683,38.49145 -30.93994,52.03027zM95.02979,156.00037c-4.03955,-18.4481 -4.03972,-37.55183 -0.00049,-56h65.9414c4.03923,18.44817 4.03906,37.5519 -0.00049,56zM36,128.00037c-0.00636,-9.50301 1.46516,-18.94922 4.36182,-28h46.39941c-3.6818,18.48513 -3.68164,37.51493 0.00049,56h-46.3999c-2.89666,-9.05078 -4.36818,-18.49699 -4.36182,-28zM128,39.97009c14.43506,13.53858 25.10693,31.73633 30.94092,52.03028h-61.88184c5.83399,-20.29395 16.50586,-38.4917 30.94092,-52.03028zM169.23877,100.00037h46.39941c5.81576,18.21368 5.81576,37.78632 0,56h-46.3999c3.68213,-18.48507 3.68229,-37.51487 0.00049,-56zM212.66064,92.00037h-45.29638c-5.70655,-21.50928 -16.53174,-40.7439 -31.61377,-55.67041c33.95484,2.9175 63.53158,24.32625 76.91015,55.67041zM120.24951,36.33c-15.082,14.92651 -25.90722,34.16113 -31.61377,55.67041h-45.29638c13.37857,-31.34416 42.95531,-52.75291 76.91015,-55.67041zM43.33936,164.00037h45.29638c5.707,21.50879 16.53174,40.74353 31.61377,55.67041c-33.95485,-2.91746 -63.53161,-24.32622 -76.91015,-55.67041zM135.75049,219.67078c15.082,-14.92688 25.90674,-34.16162 31.61377,-55.67041h45.29638c-13.37854,31.34419 -42.9553,52.75295 -76.91015,55.67041z"></path></g></g></g></svg>