<svg xmlns="http://www.w3.org/2000/svg" width="72" height="72" viewBox="0 0 256 256"><g stroke-miterlimit="10" font-family="none" font-size="none" font-weight="none" text-anchor="none"><path fill="none" fill-opacity="0" d="M-14.222 270.222V-14.222h284.444v284.444z" style="mix-blend-mode:normal" transform="matrix(.9 0 0 .9 12.8 12.8)"/><path fill="#0080ff" d="M28.444 270.222c-23.564 0-42.666-19.102-42.666-42.666V28.444c0-23.564 19.102-42.666 42.666-42.666h199.112c23.564 0 42.666 19.102 42.666 42.666v199.112c0 23.564-19.102 42.666-42.666 42.666z" style="mix-blend-mode:normal" transform="matrix(.9 0 0 .9 12.8 12.8)"/><path fill="#fff" d="M303 650C73 604-13 321 152 153 334-33 653 99 653 360c0 184-170 326-350 290zm106-84c67-35 65-143-4-174-51-23-107-7-131 39-47 91 44 182 135 135zm94-295c35-17 47-28 47-45 0-50-101-106-190-106-88 0-190 56-190 104 0 69 223 100 333 47z" style="mix-blend-mode:normal" transform="matrix(.32 0 0 -.32 12.8 243.2)"/></g></svg>