<svg xmlns="http://www.w3.org/2000/svg" xmlns:xlink="http://www.w3.org/1999/xlink" viewBox="0,0,256,256" width="72px" height="72px" fill-rule="nonzero"><g transform="translate(38.4,38.4) scale(0.7,0.7)"><g fill="#6414bd" fill-rule="nonzero" stroke="none" stroke-width="1" stroke-linecap="butt" stroke-linejoin="miter" stroke-miterlimit="10" stroke-dasharray="" stroke-dashoffset="0" font-family="none" font-weight="none" font-size="none" text-anchor="none" style="mix-blend-mode: normal"><path d="M0,310.85714c-30.29676,0 -54.85714,-24.56038 -54.85714,-54.85714v-256c0,-30.29676 24.56038,-54.85714 54.85714,-54.85714h256c30.29676,0 54.85714,24.56038 54.85714,54.85714v256c0,30.29676 -24.56038,54.85714 -54.85714,54.85714z" id="shape"></path></g><g fill="#ffffff" fill-rule="nonzero" stroke="none" stroke-width="1" stroke-linecap="butt" stroke-linejoin="miter" stroke-miterlimit="10" stroke-dasharray="" stroke-dashoffset="0" font-family="none" font-weight="none" font-size="none" text-anchor="none" style="mix-blend-mode: normal"><g transform="scale(3.55556,3.55556)"><path transform="translate(0,72) scale(0.1,-0.1)" d="M303,650c-230,-46 -316,-329 -151,-497c182,-186 501,-54 501,207c0,184 -170,326 -350,290zM409,566c67,-35 65,-143 -4,-174c-51,-23 -107,-7 -131,39c-47,91 44,182 135,135zM503,271c35,-17 47,-28 47,-45c0,-50 -101,-106 -190,-106c-88,0 -190,56 -190,104c0,69 223,100 333,47z"></path></g></g></g></svg>