<svg xmlns="http://www.w3.org/2000/svg" width="72" height="72" viewBox="0 0 256 256"><g stroke-miterlimit="10" font-family="none" font-size="none" font-weight="none" text-anchor="none"><path fill="none" fill-opacity="0" d="M-32 288V-32h320v320z" style="mix-blend-mode:normal" transform="matrix(.8 0 0 .8 25.6 25.6)"/><path fill="#999" d="M16 288c-26.51 0-48-21.49-48-48V16c0-26.51 21.49-48 48-48h224c26.51 0 48 21.49 48 48v224c0 26.51-21.49 48-48 48z" style="mix-blend-mode:normal" transform="matrix(.8 0 0 .8 25.6 25.6)"/><path fill="#fff" d="M55.586 30.807H53.08c.049-.166.076-.339.076-.52V1.785C53.156.801 52.359 0 51.371 0H4.725c-.984 0-1.78.801-1.78 1.785v28.502c0 .18.027.354.076.52H1.343c-.739 0-1.343.85-1.343 1.906v1.576c0 1.051.604 1.905 1.343 1.905h54.243c.743 0 1.342-.854 1.342-1.905v-1.576c-.001-1.056-.599-1.906-1.342-1.906zm-23.653 2.735h-6.936a1.343 1.343 0 0 1-1.343-1.345c0-.04 0-.085.01-.124a1.332 1.332 0 0 1 1.333-1.219h6.936c.703 0 1.275.532 1.334 1.219a.571.571 0 0 1 .009.124 1.34 1.34 0 0 1-1.343 1.345zm17.37-7.028c0 .724-.587 1.316-1.312 1.316H8.108a1.319 1.319 0 0 1-1.315-1.316V5.56h-.001c0-.726.591-1.312 1.315-1.312h39.884a1.31 1.31 0 0 1 1.312 1.312z" style="mix-blend-mode:normal" transform="matrix(3.59753 0 0 3.59753 25.6 62.893)"/></g></svg>