<svg xmlns="http://www.w3.org/2000/svg" xmlns:xlink="http://www.w3.org/1999/xlink" viewBox="0,0,256,256" width="72px" height="72px" fill-rule="nonzero"><g transform="translate(38.4,38.4) scale(0.7,0.7)"><g fill-opacity="0" fill="#ffffff" fill-rule="nonzero" stroke="none" stroke-width="1" stroke-linecap="butt" stroke-linejoin="miter" stroke-miterlimit="10" stroke-dasharray="" stroke-dashoffset="0" font-family="none" font-weight="none" font-size="none" text-anchor="none" style="mix-blend-mode: normal"><path transform="translate(-54.85714,-54.85714) scale(1.42857,1.42857)" d="M0,256v-256h256v256z" id="bgRectangle"></path></g><g fill="#318180" fill-rule="nonzero" stroke="none" stroke-width="1" stroke-linecap="butt" stroke-linejoin="miter" stroke-miterlimit="10" stroke-dasharray="" stroke-dashoffset="0" font-family="none" font-weight="none" font-size="none" text-anchor="none" style="mix-blend-mode: normal"><path transform="translate(-54.85714,-54.85714)" d="M54.85714,365.71429c-30.29676,0 -54.85714,-24.56038 -54.85714,-54.85714v-256c0,-30.29676 24.56038,-54.85714 54.85714,-54.85714h256c30.29676,0 54.85714,24.56038 54.85714,54.85714v256c0,30.29676 -24.56038,54.85714 -54.85714,54.85714z" id="shape"></path></g><g fill="#ffffff" fill-rule="nonzero" stroke="none" stroke-width="1" stroke-linecap="butt" stroke-linejoin="miter" stroke-miterlimit="10" stroke-dasharray="" stroke-dashoffset="0" font-family="none" font-weight="none" font-size="none" text-anchor="none" style="mix-blend-mode: normal"><g transform="translate(0,46.61591) scale(4.49691,4.49691)"><path d="M55.586,30.807h-2.506c0.049,-0.166 0.076,-0.339 0.076,-0.52v-28.502c0,-0.984 -0.797,-1.785 -1.785,-1.785h-46.646c-0.984,0 -1.78,0.801 -1.78,1.785v28.502c0,0.18 0.027,0.354 0.076,0.52h-1.678c-0.739,0 -1.343,0.85 -1.343,1.906v1.576c0,1.051 0.604,1.905 1.343,1.905h54.243c0.743,0 1.342,-0.854 1.342,-1.905v-1.576c-0.001,-1.056 -0.599,-1.906 -1.342,-1.906zM31.933,33.542h-6.936c-0.742,0 -1.343,-0.601 -1.343,-1.345c0,-0.04 0,-0.085 0.01,-0.124c0.058,-0.687 0.631,-1.219 1.333,-1.219h6.936c0.703,0 1.275,0.532 1.334,1.219c0.009,0.039 0.009,0.084 0.009,0.124c0.001,0.746 -0.599,1.345 -1.343,1.345zM49.303,26.514c0,0.724 -0.587,1.316 -1.312,1.316h-39.883c-0.726,0 -1.315,-0.594 -1.315,-1.316v-20.954h-0.001c0,-0.726 0.591,-1.312 1.315,-1.312h39.884c0.726,0 1.312,0.585 1.312,1.312z"></path></g></g></g></svg>