<svg xmlns="http://www.w3.org/2000/svg" xmlns:xlink="http://www.w3.org/1999/xlink" viewBox="0,0,256,256" width="72px" height="72px" fill-rule="nonzero"><g transform="translate(38.4,38.4) scale(0.7,0.7)"><g fill="#0080ff" fill-rule="nonzero" stroke="none" stroke-width="1" stroke-linecap="butt" stroke-linejoin="miter" stroke-miterlimit="10" stroke-dasharray="" stroke-dashoffset="0" font-family="none" font-weight="none" font-size="none" text-anchor="none" style="mix-blend-mode: normal"><path d="M0,310.85714c-30.29676,0 -54.85714,-24.56038 -54.85714,-54.85714v-256c0,-30.29676 24.56038,-54.85714 54.85714,-54.85714h256c30.29676,0 54.85714,24.56038 54.85714,54.85714v256c0,30.29676 -24.56038,54.85714 -54.85714,54.85714z" id="shape"></path></g><g fill="#ffffff" fill-rule="nonzero" stroke="none" stroke-width="1" stroke-linecap="butt" stroke-linejoin="miter" stroke-miterlimit="10" stroke-dasharray="" stroke-dashoffset="0" font-family="none" font-weight="none" font-size="none" text-anchor="none" style="mix-blend-mode: normal"><g transform="scale(3.55556,3.55556)"><path transform="scale(0.75,0.75)" d="M50.72461,5.38086c-3.10521,0.30186 -7.53359,4.00247 -16.05859,12.61914l-12.66602,12.66602h-8.40039c-7.73333,0 -8.39961,0.2668 -9.59961,3.4668c-1.73333,4.4 -1.73333,23.33438 0,27.73438c1.2,3.2 1.86628,3.4668 9.59961,3.4668h8.40039l12.66602,12.66602c12.4,12.53333 16.13437,14.66641 19.73438,11.06641c2.26667,-2.26667 2.26667,-79.86615 0,-82.13281c-1.125,-1.125 -2.26432,-1.68994 -3.67578,-1.55273zM49.59961,10.66602c0.66667,0 1.06641,16.80065 1.06641,37.33398c0,20.53333 -0.40026,37.33398 -0.93359,37.33398c-0.53333,0 -6.53203,-5.60091 -13.33203,-12.26758l-12.40039,-12.40039v-12.66602v-12.66602l12.26758,-12.26758c6.8,-6.8 12.7987,-12.40039 13.33203,-12.40039zM60.29492,14.79883c-1.36719,0.08203 -1.62891,0.7181 -1.62891,2.13477c0,2.13333 1.20156,2.93346 5.60156,3.4668c12.53333,1.73333 22.93164,14.13294 22.93164,27.59961c0,13.46667 -10.39831,25.86628 -22.93164,27.59961c-4.4,0.53333 -5.60156,1.33346 -5.60156,3.4668c0,2.26667 0.6668,2.53437 5.4668,1.73438c16.4,-2.66667 28.13477,-16.26745 28.13477,-32.80078c0,-16.53333 -11.73476,-30.13411 -28.13477,-32.80078c-1.8,-0.3 -3.01758,-0.44961 -3.83789,-0.40039zM61.36719,26.375c-1.64663,0.01703 -2.70117,0.71602 -2.70117,2.29102c0,1.2 1.06706,2.40078 2.40039,2.80078c7.6,2.53333 10.13372,4.13242 12.40039,7.73242c3.33333,5.33333 3.20052,12.00013 -0.13281,17.4668c-2.4,3.86667 -4.80091,5.46719 -12.26758,7.86719c-4,1.2 -2.9332,4.80078 1.4668,4.80078c4.4,0 11.33398,-4.40104 15.33398,-9.73437c3.86667,-5.33333 3.86667,-17.86588 0,-23.19922c-4.21667,-5.65417 -12.29194,-10.06891 -16.5,-10.02539zM14,34.66602h4.66602v13.4668v13.33398l-4.93359,-0.40039l-5.06641,-0.40039l-0.39844,-11.19922c-0.26667,-6.13333 -0.13438,-11.99974 0.26563,-13.06641c0.4,-0.93333 2.6668,-1.73437 5.4668,-1.73437zM60.24219,37.70703c-1.2,-0.08125 -1.57617,0.49258 -1.57617,1.89258c0,1.33333 1.2013,3.19948 2.66797,4.13281c1.46667,0.93333 2.66602,2.80091 2.66602,4.26758c0,1.46667 -1.19935,3.33425 -2.66602,4.26758c-1.46667,0.93333 -2.66797,2.79948 -2.66797,4.13281c0,1.86667 0.66641,2.26628 3.06641,1.59961c9.86667,-2.93333 9.86667,-17.06667 0,-20c-0.6,-0.16667 -1.09023,-0.26588 -1.49023,-0.29297z"></path></g></g></g></svg>