<svg xmlns="http://www.w3.org/2000/svg" width="72" height="72" viewBox="0 0 256 256"><g stroke-miterlimit="10" font-family="none" font-size="none" font-weight="none" text-anchor="none"><path fill="none" fill-opacity="0" d="M0 256V0h256v256z" style="mix-blend-mode:normal"/><path fill="#88adf7" d="M64 426.667c-35.346 0-64-28.654-64-64V64C0 28.654 28.654 0 64 0h298.667c35.346 0 64 28.654 64 64v298.667c0 35.346-28.654 64-64 64z" style="mix-blend-mode:normal" transform="matrix(.6 0 0 .6 0 0)"/><g fill="none" stroke="#fff" stroke-width="2" style="mix-blend-mode:normal"><path stroke-width="4.8" d="M53.6 168.8c0 2.65 2.15 4.8 4.8 4.8h139.2c2.65 0 4.8-2.15 4.8-4.8V87.2c0-2.65-2.15-4.8-4.8-4.8H58.4c-2.65 0-4.8 2.15-4.8 4.8v81.6z"/><path stroke-width="4.8" d="M202.4 87.2c0-2.65-74.4 52.877-74.4 52.877S53.6 85.146 53.6 87.2M200 171.2l-57.6-40.8M56 171.2l57.6-40.8"/></g></g></svg>