<svg xmlns="http://www.w3.org/2000/svg" xmlns:xlink="http://www.w3.org/1999/xlink" viewBox="0,0,256,256" width="72px" height="72px" fill-rule="nonzero"><g transform="translate(51.2,51.2) scale(0.6,0.6)"><g fill-opacity="0" fill="#ffffff" fill-rule="nonzero" stroke="none" stroke-width="1" stroke-linecap="butt" stroke-linejoin="miter" stroke-miterlimit="10" stroke-dasharray="" stroke-dashoffset="0" font-family="none" font-weight="none" font-size="none" text-anchor="none" style="mix-blend-mode: normal"><path transform="translate(-85.33333,-85.33333) scale(1.66667,1.66667)" d="M0,256v-256h256v256z" id="bgRectangle"></path></g><g fill="#88adf7" fill-rule="nonzero" stroke="none" stroke-width="1" stroke-linecap="butt" stroke-linejoin="miter" stroke-miterlimit="10" stroke-dasharray="" stroke-dashoffset="0" font-family="none" font-weight="none" font-size="none" text-anchor="none" style="mix-blend-mode: normal"><path transform="translate(-85.33333,-85.33333)" d="M64,426.66667c-35.34622,0 -64,-28.65378 -64,-64v-298.66667c0,-35.34622 28.65378,-64 64,-64h298.66667c35.34622,0 64,28.65378 64,64v298.66667c0,35.34622 -28.65378,64 -64,64z" id="shape"></path></g><g fill="none" fill-rule="nonzero" stroke="#ffffff" stroke-width="2" stroke-linecap="butt" stroke-linejoin="miter" stroke-miterlimit="10" stroke-dasharray="" stroke-dashoffset="0" font-family="none" font-weight="none" font-size="none" text-anchor="none" style="mix-blend-mode: normal"><g transform="translate(0,48) scale(4,4)"><path transform="translate(1,1)" d="M0,36c0,1.104 0.896,2 2,2h58c1.104,0 2,-0.896 2,-2v-34c0,-1.104 -0.896,-2 -2,-2h-58c-1.104,0 -2,0.896 -2,2v34z"></path><path transform="translate(1,1)" d="M62,2c0,-1.104 -31,22.032 -31,22.032c0,0 -31,-22.888 -31,-22.032"></path><path transform="translate(1,1)" d="M61,37l-24,-17"></path><path transform="translate(1,1)" d="M1,37l24,-17"></path></g></g></g></svg>