<svg xmlns="http://www.w3.org/2000/svg" xmlns:xlink="http://www.w3.org/1999/xlink" viewBox="0,0,256,256" width="72px" height="72px" fill-rule="nonzero"><g transform="translate(38.4,38.4) scale(0.7,0.7)"><g fill-opacity="0" fill="#ffffff" fill-rule="nonzero" stroke="none" stroke-width="1" stroke-linecap="butt" stroke-linejoin="miter" stroke-miterlimit="10" stroke-dasharray="" stroke-dashoffset="0" font-family="none" font-weight="none" font-size="none" text-anchor="none" style="mix-blend-mode: normal"><path d="M-54.85714,310.85714v-365.71429h365.71429v365.71429z" id="bgRectangle"></path></g><g fill="#874de6" fill-rule="nonzero" stroke="none" stroke-width="1" stroke-linecap="butt" stroke-linejoin="miter" stroke-miterlimit="10" stroke-dasharray="" stroke-dashoffset="0" font-family="none" font-weight="none" font-size="none" text-anchor="none" style="mix-blend-mode: normal"><path d="M0,310.85714c-30.29676,0 -54.85714,-24.56038 -54.85714,-54.85714v-256c0,-30.29676 24.56038,-54.85714 54.85714,-54.85714h256c30.29676,0 54.85714,24.56038 54.85714,54.85714v256c0,30.29676 -24.56038,54.85714 -54.85714,54.85714z" id="shape"></path></g><g fill="none" fill-rule="nonzero" stroke="none" stroke-width="1" stroke-linecap="butt" stroke-linejoin="miter" stroke-miterlimit="10" stroke-dasharray="" stroke-dashoffset="0" font-family="none" font-weight="none" font-size="none" text-anchor="none" style="mix-blend-mode: normal"><g><path d="M0,256v-256h256v256z" fill="none"></path><path transform="scale(8.53333,8.53333)" d="M4,3c-1.105,0 -2,0.895 -2,2v3h11h15v-1c0,-1.105 -0.895,-2 -2,-2h-14.80078l-0.61719,-1.0293c-0.361,-0.602 -1.01184,-0.9707 -1.71484,-0.9707zM3,10c-0.552,0 -1,0.448 -1,1v12c0,1.105 0.895,2 2,2h22c1.105,0 2,-0.895 2,-2v-12c0,-0.552 -0.448,-1 -1,-1z" fill="#ffffff"></path></g></g></g></svg>