<svg xmlns="http://www.w3.org/2000/svg" width="72" height="72" viewBox="0 0 256 256"><g stroke-miterlimit="10" font-family="none" font-size="none" font-weight="none" text-anchor="none"><path fill="none" fill-opacity="0" d="M-54.857 310.857V-54.857h365.714v365.714z" style="mix-blend-mode:normal" transform="matrix(.7 0 0 .7 38.4 38.4)"/><path fill="#8011c2" d="M0 310.857c-30.297 0-54.857-24.56-54.857-54.857V0c0-30.297 24.56-54.857 54.857-54.857h256c30.297 0 54.857 24.56 54.857 54.857v256c0 30.297-24.56 54.857-54.857 54.857z" style="mix-blend-mode:normal" transform="matrix(.7 0 0 .7 38.4 38.4)"/><g fill="none" style="mix-blend-mode:normal"><path d="M38.4 217.6V38.4h179.2v179.2z"/><path fill="#fff" d="M62.293 56.32c-6.6 0-11.946 5.346-11.946 11.947v17.92H205.653v-5.974c0-6.6-5.346-11.946-11.946-11.946h-88.41l-3.687-6.149a11.942 11.942 0 0 0-10.243-5.798zM56.32 98.133a5.976 5.976 0 0 0-5.973 5.974v71.68c0 6.6 5.346 11.946 11.946 11.946h131.414c6.6 0 11.946-5.346 11.946-11.946v-71.68a5.976 5.976 0 0 0-5.973-5.974z"/></g></g></svg>