<svg xmlns="http://www.w3.org/2000/svg" width="72" height="72" viewBox="0 0 256 256"><path fill="none" fill-opacity="0" stroke-miterlimit="10" d="M0 256V0h256v256z" font-family="none" font-size="none" font-weight="none" style="mix-blend-mode:normal" text-anchor="none"/><path fill="#faac52" stroke-miterlimit="10" d="M38.4 256C17.192 256 0 238.808 0 217.6V38.4C0 17.192 17.192 0 38.4 0h179.2C238.808 0 256 17.192 256 38.4v179.2c0 21.208-17.192 38.4-38.4 38.4z" font-family="none" font-size="none" font-weight="none" style="mix-blend-mode:normal" text-anchor="none"/><g fill="none" stroke-miterlimit="10" font-family="none" font-size="none" font-weight="none" style="mix-blend-mode:normal" text-anchor="none"><path d="M0 256V0h256v256z"/><path d="M0 0h256v256H0z"/></g><path fill="#fff" stroke-miterlimit="10" d="m39.75 113.145 6.97-3.99 3.55 5.98 2.56 7.96 2.99-8.11 3.41-5.68 6.83 3.69-3.7 6.12-6.54 6.83 9.67-1.71h6.83v7.96h-6.54l-9.11-1.7 6.55 6.82 3.27 5.55-6.69 3.98-3.69-5.97-3.28-8.68-2.7 8.25-3.55 5.98-7.11-3.99 3.84-5.97 5.97-5.97-8.25 1.7h-7.11v-7.96h7.11l8.82 1.71-6.4-6.26zm49.92 0 6.97-3.99 3.55 5.98 2.56 7.96 2.99-8.11 3.41-5.68 6.83 3.69-3.7 6.12-6.54 6.83 9.67-1.71h6.83v7.96h-6.54l-9.11-1.7 6.55 6.82 3.27 5.55-6.69 3.98-3.69-5.97-3.28-8.68-2.7 8.25-3.55 5.98-7.11-3.99 3.84-5.97 5.97-5.97-8.25 1.7h-7.11v-7.96h7.11l8.82 1.71-6.4-6.26zm49.92 0 6.97-3.99 3.55 5.98 2.56 7.96 2.99-8.11 3.41-5.68 6.83 3.69-3.7 6.12-6.54 6.83 9.67-1.71h6.83v7.96h-6.54l-9.11-1.7 6.55 6.82 3.27 5.55-6.69 3.98-3.69-5.97-3.28-8.68-2.7 8.25-3.55 5.98-7.11-3.99 3.84-5.97 5.97-5.97-8.25 1.7h-7.11v-7.96h7.11l8.82 1.71-6.4-6.26zm49.92 0 6.97-3.99 3.55 5.98 2.56 7.96 2.99-8.11 3.41-5.68 6.83 3.69-3.7 6.12-6.54 6.83 9.67-1.71h6.83v7.96h-6.54l-9.11-1.7 6.55 6.82 3.27 5.55-6.69 3.98-3.69-5.97-3.28-8.68-2.7 8.25-3.55 5.98-7.11-3.99 3.84-5.97 5.97-5.97-8.25 1.7h-7.11v-7.96h7.11l8.82 1.71-6.4-6.26z" font-family="none" font-size="none" font-weight="none" style="mix-blend-mode:normal" text-anchor="none"/></svg>