<svg xmlns="http://www.w3.org/2000/svg" xmlns:xlink="http://www.w3.org/1999/xlink" viewBox="0,0,256,256" width="72px" height="72px" fill-rule="nonzero"><g transform="translate(38.4,38.4) scale(0.7,0.7)"><g fill="#75160a" fill-rule="nonzero" stroke="none" stroke-width="1" stroke-linecap="butt" stroke-linejoin="miter" stroke-miterlimit="10" stroke-dasharray="" stroke-dashoffset="0" font-family="none" font-weight="none" font-size="none" text-anchor="none" style="mix-blend-mode: normal"><path d="M0,310.85714c-30.29676,0 -54.85714,-24.56038 -54.85714,-54.85714v-256c0,-30.29676 24.56038,-54.85714 54.85714,-54.85714h256c30.29676,0 54.85714,24.56038 54.85714,54.85714v256c0,30.29676 -24.56038,54.85714 -54.85714,54.85714z" id="shape"></path></g><g fill="#ffffff" fill-rule="nonzero" stroke="none" stroke-width="1" stroke-linecap="butt" stroke-linejoin="miter" stroke-miterlimit="10" stroke-dasharray="" stroke-dashoffset="0" font-family="none" font-weight="none" font-size="none" text-anchor="none" style="mix-blend-mode: normal"><g transform="scale(0.26122,0.26122)"><path transform="translate(0,980) scale(0.1,-0.1)" d="M4625,8515c-311,-44 -578,-136 -828,-285c-518,-308 -893,-823 -1017,-1395c-44,-203 -50,-288 -50,-727v-418h-157c-100,0 -184,-6 -228,-15c-183,-39 -318,-157 -387,-341l-23,-59l-3,-1755c-2,-1279 0,-1774 9,-1823c17,-104 75,-212 154,-285c67,-63 157,-113 235,-131c63,-15 5077,-15 5140,0c132,30 270,137 334,258c71,135 67,5 64,1968l-3,1768l-27,69c-48,124 -125,214 -238,279c-86,49 -141,59 -342,64l-186,5l-4,462c-5,513 -10,563 -83,813c-231,796 -899,1392 -1720,1534c-157,28 -493,35 -640,14zM5180,7780c128,-26 228,-59 339,-111c365,-170 675,-537 776,-915c45,-165 47,-197 52,-636l5,-428h-1452h-1452l5,423c4,461 9,508 68,690c68,210 180,395 336,557c236,246 539,398 873,439c115,15 330,5 450,-19zM5017,3946c110,-29 218,-106 283,-201c71,-103 98,-268 64,-386c-40,-135 -144,-260 -257,-309l-56,-25l-3,-362c-3,-347 -4,-363 -24,-389c-37,-51 -71,-69 -125,-68c-53,1 -87,19 -123,68c-20,26 -21,42 -24,389l-3,362l-56,25c-119,51 -234,196 -262,328c-53,252 105,506 354,568c68,17 169,17 232,0z"></path></g></g></g></svg>