<svg xmlns="http://www.w3.org/2000/svg" width="72" height="72" viewBox="0 0 256 256"><g stroke-miterlimit="10" font-family="none" font-size="none" font-weight="none" text-anchor="none"><path fill="none" fill-opacity="0" d="M-32 288V-32h320v320z" style="mix-blend-mode:normal" transform="matrix(.8 0 0 .8 25.6 25.6)"/><path fill="#9ca3d3" d="M16 288c-26.51 0-48-21.49-48-48V16c0-26.51 21.49-48 48-48h224c26.51 0 48 21.49 48 48v224c0 26.51-21.49 48-48 48z" style="mix-blend-mode:normal" transform="matrix(.8 0 0 .8 25.6 25.6)"/><g fill="none" stroke="#fff" stroke-linecap="round" stroke-linejoin="round" style="mix-blend-mode:normal"><path stroke-width="4.26666" d="M101.218 105.626h53.568v43.545h-53.568z"/><path stroke-width="4.26666" d="M128 211.2c17.452-3.802 67.735-35.941 67.735-76.202V58.624S176.382 44.8 128 44.8 60.265 58.624 60.265 58.624v76.374c0 40.26 50.283 72.4 67.735 76.202z"/><path stroke-width="4.26666" d="M110.98 105.623v-6.998c0-9.4 7.62-17.02 17.02-17.02 9.4 0 17.02 7.62 17.02 17.02v6.998"/></g></g></svg>