<svg xmlns="http://www.w3.org/2000/svg" width="72" height="72" viewBox="0 0 256 256"><g stroke-miterlimit="10" font-family="none" font-size="none" font-weight="none" text-anchor="none"><path fill="none" fill-opacity="0" d="M-32 288V-32h320v320z" style="mix-blend-mode:normal" transform="matrix(.8 0 0 .8 25.6 25.6)"/><path fill="#0c178a" d="M16 288c-26.51 0-48-21.49-48-48V16c0-26.51 21.49-48 48-48h224c26.51 0 48 21.49 48 48v224c0 26.51-21.49 48-48 48z" style="mix-blend-mode:normal" transform="matrix(.8 0 0 .8 25.6 25.6)"/><path fill="#fff" d="M3 7.391V10c0 .344.854.875 2.41 1.284C7.135 11.738 9.487 12 12 12s4.865-.262 6.59-.716c1.556-.41 2.41-.94 2.41-1.284V7.391C19.386 8.403 15.983 9 12 9c-3.983 0-7.386-.597-9-1.609zM2 6c0-1.833 4.434-3 10-3s10 1.167 10 3v12c0 1.833-4.434 3-10 3S2 19.833 2 18V6zm19 5.391C19.386 12.403 15.983 13 12 13c-3.983 0-7.386-.597-9-1.609V14c0 .344.854.875 2.41 1.284C7.135 15.738 9.487 16 12 16s4.865-.262 6.59-.716c1.556-.41 2.41-.94 2.41-1.284v-2.609zm0 4C19.386 16.403 15.983 17 12 17c-3.983 0-7.386-.597-9-1.609V18c0 .344.854.875 2.41 1.284C7.135 19.738 9.487 20 12 20s4.865-.262 6.59-.716c1.556-.41 2.41-.94 2.41-1.284v-2.609zM12 8c2.513 0 4.865-.262 6.59-.716C20.146 6.874 21 6.344 21 6c0-.344-.854-.875-2.41-1.284C16.865 4.262 14.513 4 12 4s-4.865.262-6.59.716C3.854 5.126 3 5.656 3 6c0 .344.854.875 2.41 1.284C7.135 7.738 9.487 8 12 8z" style="mix-blend-mode:normal" transform="matrix(8.53334 0 0 8.53334 25.6 25.6)"/></g></svg>