<svg xmlns="http://www.w3.org/2000/svg" xmlns:xlink="http://www.w3.org/1999/xlink" viewBox="0,0,256,256" width="72px" height="72px" fill-rule="nonzero"><g transform="translate(38.4,38.4) scale(0.7,0.7)"><g fill="#5cc9fa" fill-rule="nonzero" stroke="none" stroke-width="1" stroke-linecap="butt" stroke-linejoin="miter" stroke-miterlimit="10" stroke-dasharray="" stroke-dashoffset="0" font-family="none" font-weight="none" font-size="none" text-anchor="none" style="mix-blend-mode: normal"><path d="M0,310.85714c-30.29676,0 -54.85714,-24.56038 -54.85714,-54.85714v-256c0,-30.29676 24.56038,-54.85714 54.85714,-54.85714h256c30.29676,0 54.85714,24.56038 54.85714,54.85714v256c0,30.29676 -24.56038,54.85714 -54.85714,54.85714z" id="shape"></path></g><g fill="#ffffff" fill-rule="nonzero" stroke="none" stroke-width="1" stroke-linecap="butt" stroke-linejoin="miter" stroke-miterlimit="10" stroke-dasharray="" stroke-dashoffset="0" font-family="none" font-weight="none" font-size="none" text-anchor="none" style="mix-blend-mode: normal"><g transform="scale(3.55556,3.55556)"><path transform="translate(0,72) scale(0.1,-0.1)" d="M255,714c-135,-35 -195,-72 -195,-124c0,-38 55,-85 128,-107c79,-25 265,-25 344,0c73,22 128,69 128,107c0,38 -54,84 -122,106c-52,16 -243,28 -283,18z"></path><path transform="translate(0,72) scale(0.1,-0.1)" d="M60,467c0,-42 5,-53 30,-77c53,-49 118,-65 270,-65c152,0 217,16 270,65c25,24 30,35 30,77v49l-67,-33c-136,-65 -330,-65 -465,0l-68,33z"></path><path transform="translate(0,72) scale(0.1,-0.1)" d="M60,321c0,-45 3,-52 36,-79c54,-45 140,-66 264,-66c124,0 210,21 264,66c33,27 36,34 36,79v50l-44,-26c-122,-72 -390,-72 -512,0l-44,26z"></path><path transform="translate(0,72) scale(0.1,-0.1)" d="M60,181c0,-57 14,-78 77,-109c111,-56 335,-56 446,0c63,31 77,52 77,109v50l-26,-20c-54,-43 -120,-56 -274,-56c-154,0 -220,13 -274,56l-26,20z"></path></g></g></g></svg>