<svg xmlns="http://www.w3.org/2000/svg" width="72" height="72" viewBox="0 0 256 256"><g stroke-miterlimit="10" font-family="none" font-size="none" font-weight="none" text-anchor="none"><path fill="none" fill-opacity="0" d="M-14.222 270.222V-14.222h284.444v284.444z" style="mix-blend-mode:normal" transform="matrix(.9 0 0 .9 12.8 12.8)"/><path fill="#408a0c" d="M28.444 270.222c-23.564 0-42.666-19.102-42.666-42.666V28.444c0-23.564 19.102-42.666 42.666-42.666h199.112c23.564 0 42.666 19.102 42.666 42.666v199.112c0 23.564-19.102 42.666-42.666 42.666z" style="mix-blend-mode:normal" transform="matrix(.9 0 0 .9 12.8 12.8)"/><path fill="#fff" d="M222.357 161.117a99.991 99.991 0 0 0-.023-66.296 3.995 3.995 0 0 0-.163-.462C207.956 54.565 170.261 28.002 128.004 28 85.747 28 48.05 54.56 33.831 94.351c-.07.164-.13.333-.178.504a99.991 99.991 0 0 0 .032 66.38c.04.134.086.265.14.395 14.21 39.796 51.903 66.365 94.161 66.37 42.258.006 79.958-26.551 94.18-66.344.077-.175.14-.355.19-.54zM128 216.03c-14.433-13.54-25.105-31.737-30.94-52.03h61.88c-5.835 20.293-16.507 38.49-30.94 52.03zM95.03 156a130.907 130.907 0 0 1 0-56h65.94a130.907 130.907 0 0 1 0 56zM36 128a91.658 91.658 0 0 1 4.362-28h46.4a143.334 143.334 0 0 0 0 56h-46.4A91.658 91.658 0 0 1 36 128zm92-88.03c14.435 13.538 25.107 31.735 30.94 52.03H97.06c5.833-20.295 16.505-38.492 30.94-52.03zM169.239 100h46.4a92.052 92.052 0 0 1 0 56h-46.4a143.334 143.334 0 0 0 0-56zm43.422-8h-45.297c-5.706-21.51-16.531-40.745-31.614-55.671 33.955 2.917 63.532 24.326 76.91 55.67zM120.25 36.33C105.168 51.257 94.342 70.491 88.636 92H43.339c13.379-31.344 42.956-52.753 76.91-55.67zM43.34 164h45.296c5.707 21.51 16.531 40.744 31.614 55.67-33.955-2.917-63.532-24.325-76.91-55.67zm92.41 55.67c15.082-14.926 25.907-34.16 31.614-55.67h45.297c-13.379 31.345-42.956 52.753-76.91 55.67z" style="mix-blend-mode:normal" transform="matrix(.9 0 0 .9 12.8 12.8)"/></g></svg>