<svg xmlns="http://www.w3.org/2000/svg" xmlns:xlink="http://www.w3.org/1999/xlink" viewBox="0,0,256,256" width="72px" height="72px" fill-rule="nonzero"><g transform="translate(38.4,38.4) scale(0.7,0.7)"><g fill-opacity="0" fill="#ffffff" fill-rule="nonzero" stroke="none" stroke-width="1" stroke-linecap="butt" stroke-linejoin="miter" stroke-miterlimit="10" stroke-dasharray="" stroke-dashoffset="0" font-family="none" font-weight="none" font-size="none" text-anchor="none" style="mix-blend-mode: normal"><path d="M-54.85714,310.85714v-365.71429h365.71429v365.71429z" id="bgRectangle"></path></g><g fill="#858585" fill-rule="nonzero" stroke="none" stroke-width="1" stroke-linecap="butt" stroke-linejoin="miter" stroke-miterlimit="10" stroke-dasharray="" stroke-dashoffset="0" font-family="none" font-weight="none" font-size="none" text-anchor="none" style="mix-blend-mode: normal"><path d="M0,310.85714c-30.29676,0 -54.85714,-24.56038 -54.85714,-54.85714v-256c0,-30.29676 24.56038,-54.85714 54.85714,-54.85714h256c30.29676,0 54.85714,24.56038 54.85714,54.85714v256c0,30.29676 -24.56038,54.85714 -54.85714,54.85714z" id="shape"></path></g><g fill="#ffffff" fill-rule="nonzero" stroke="none" stroke-width="1" stroke-linecap="butt" stroke-linejoin="miter" stroke-miterlimit="10" stroke-dasharray="" stroke-dashoffset="0" font-family="none" font-weight="none" font-size="none" text-anchor="none" style="mix-blend-mode: normal"><g transform="scale(54.70085,54.70085)"><path d="M2.34,0.36c-1.197,0 -2.151,0.882 -2.151,1.971c0,0.342 0.099,0.666 0.261,0.954c0.027,0.045 0.036,0.099 0.018,0.153l-0.279,0.765c-0.027,0.072 0.045,0.135 0.117,0.117l0.774,-0.297c0.045,-0.018 0.099,-0.009 0.153,0.018c0.324,0.18 0.711,0.288 1.125,0.288c1.179,-0.009 2.142,-0.882 2.142,-1.98c-0.009,-1.107 -0.972,-1.989 -2.16,-1.989M1.26,2.7c-0.198,0 -0.36,-0.162 -0.36,-0.36c0,-0.198 0.162,-0.36 0.36,-0.36c0.198,0 0.36,0.162 0.36,0.36c0,0.198 -0.162,0.36 -0.36,0.36M2.34,2.7c-0.198,0 -0.36,-0.162 -0.36,-0.36c0,-0.198 0.162,-0.36 0.36,-0.36c0.198,0 0.36,0.162 0.36,0.36c0,0.198 -0.162,0.36 -0.36,0.36M3.42,2.7c-0.198,0 -0.36,-0.162 -0.36,-0.36c0,-0.198 0.162,-0.36 0.36,-0.36c0.198,0 0.36,0.162 0.36,0.36c0,0.198 -0.162,0.36 -0.36,0.36"></path></g></g></g></svg>