<svg xmlns="http://www.w3.org/2000/svg" width="72" height="72" viewBox="0 0 256 256"><g stroke-miterlimit="10" font-family="none" font-size="none" font-weight="none" text-anchor="none"><path fill="none" fill-opacity="0" d="M-32 288V-32h320v320z" style="mix-blend-mode:normal" transform="matrix(.8 0 0 .8 25.6 25.6)"/><path fill="#999" d="M16 288c-26.51 0-48-21.49-48-48V16c0-26.51 21.49-48 48-48h224c26.51 0 48 21.49 48 48v224c0 26.51-21.49 48-48 48z" style="mix-blend-mode:normal" transform="matrix(.8 0 0 .8 25.6 25.6)"/><path fill="#fff" d="M50.725 5.38C47.619 5.684 43.19 9.384 34.666 18L22 30.666h-8.4c-7.734 0-8.4.267-9.6 3.467-1.733 4.4-1.733 23.334 0 27.734 1.2 3.2 1.866 3.467 9.6 3.467H22L34.666 78C47.066 90.533 50.8 92.666 54.4 89.066c2.267-2.266 2.267-79.866 0-82.132-1.125-1.125-2.264-1.69-3.675-1.553zM49.6 10.667c.666 0 1.066 16.8 1.066 37.334 0 20.533-.4 37.334-.934 37.334-.533 0-6.532-5.6-13.332-12.268L24 60.666V35.334l12.268-12.268c6.8-6.8 12.798-12.4 13.332-12.4zm10.695 4.133c-1.367.082-1.629.718-1.629 2.135 0 2.133 1.202 2.933 5.602 3.466C76.8 22.134 87.199 34.533 87.199 48c0 13.467-10.398 25.866-22.931 27.6-4.4.533-5.602 1.333-5.602 3.466 0 2.267.667 2.535 5.467 1.735C80.533 78.134 92.268 64.533 92.268 48S80.533 17.866 64.133 15.2c-1.8-.3-3.018-.45-3.838-.401zm1.072 11.576c-1.646.017-2.701.716-2.701 2.291 0 1.2 1.067 2.4 2.4 2.8C68.666 34 71.2 35.6 73.466 39.2c3.334 5.334 3.201 12-.132 17.467-2.4 3.867-4.8 5.467-12.268 7.867-4 1.2-2.933 4.801 1.467 4.801s11.334-4.401 15.334-9.734c3.867-5.334 3.867-17.866 0-23.2-4.216-5.654-12.292-10.069-16.5-10.025zM14 34.666h4.666V61.467l-4.934-.4-5.066-.401-.398-11.2C8 43.334 8.133 37.468 8.533 36.4c.4-.933 2.667-1.734 5.467-1.734zm46.242 3.041c-1.2-.081-1.576.493-1.576 1.893 0 1.333 1.201 3.2 2.668 4.132C62.801 44.666 64 46.533 64 48c0 1.467-1.2 3.334-2.666 4.268-1.467.933-2.668 2.8-2.668 4.132 0 1.867.666 2.267 3.066 1.6 9.867-2.933 9.867-17.067 0-20-.6-.167-1.09-.266-1.49-.293z" style="mix-blend-mode:normal" transform="matrix(2.13334 0 0 2.13334 25.6 25.6)"/></g></svg>