<svg xmlns="http://www.w3.org/2000/svg" version="1.1" xmlns:xlink="http://www.w3.org/1999/xlink" width="72" height="72"><svg xmlns="http://www.w3.org/2000/svg" width="72" height="72" viewBox="0 0 256 256"><g stroke-miterlimit="10" font-family="none" font-size="none" font-weight="none" text-anchor="none"><path fill="none" fill-opacity="0" d="M8.374 247.626V8.374h239.252v239.252z" style="mix-blend-mode:normal" transform="matrix(1.07 0 0 1.07 -8.96 -8.96)"></path><path fill="#0080ff" d="M44.262 247.626c-19.82 0-35.888-16.067-35.888-35.888V44.262c0-19.82 16.067-35.888 35.888-35.888h167.476c19.82 0 35.888 16.067 35.888 35.888v167.476c0 19.82-16.067 35.888-35.888 35.888z" style="mix-blend-mode:normal" transform="matrix(1.07 0 0 1.07 -8.96 -8.96)"></path><path fill="#fff" d="M8666 8535c-9-24-25-253-36-530-17-388-33-514-102-790-157-628-505-1369-791-1681-33-35-61-63-64-61-2 3 7 63 21 133 41 214 50 310 50 514 0 357-66 651-218 965-228 474-584 822-1065 1044-325 149-740 222-1103 192-321-26-562-92-820-223-215-109-387-236-573-424-362-364-560-764-626-1259-7-49-12-189-12-310 0-348 32-526 139-790 66-162 157-337 231-448 36-54 63-100 60-103-14-14-219 114-372 233-292 228-640 603-837 904-64 96-75 109-100 109-37 0-89-27-208-106-128-85-200-149-200-179 0-58 250-354 570-675 350-351 623-572 955-773 445-270 961-454 1445-514 121-15 219-18 585-18 560 1 732 17 1093 106 870 213 1649 655 2352 1336 387 375 746 815 1375 1686 212 294 383 509 530 667 112 120 144 165 127 182-10 10-466 171-1032 365-405 139-1361 463-1365 463-1 0-6-7-9-15zm-2938-741c384-57 687-204 956-463 262-254 431-558 508-914 32-150 32-435 0-595-122-604-549-1095-1128-1295-430-149-863-119-1279 88-407 203-712 553-854 981-55 165-74 298-74 524 0 225 19 359 73 521 181 546 632 961 1203 1108 229 59 408 73 595 45z" style="mix-blend-mode:normal" transform="matrix(.0214 0 0 -.0214 -12.344 259.557)"></path></g></svg><style>@media (prefers-color-scheme: light) { :root { filter: none; } }
@media (prefers-color-scheme: dark) { :root { filter: none; } }
</style></svg>