<svg xmlns="http://www.w3.org/2000/svg" width="72" height="72" viewBox="0 0 256 256"><g stroke-miterlimit="10" font-family="none" font-size="none" font-weight="none" text-anchor="none"><path fill="none" fill-opacity="0" d="M-32 288V-32h320v320z" style="mix-blend-mode:normal" transform="matrix(.8 0 0 .8 25.6 25.6)"/><g fill="#333" style="mix-blend-mode:normal"><path d="M164.64 138.729a3.822 3.822 0 0 0-5.429 0l-27.367 27.36V29.44a3.836 3.836 0 0 0-3.84-3.84 3.836 3.836 0 0 0-3.84 3.84v136.648L96.8 138.728a3.822 3.822 0 0 0-5.43 0 3.831 3.831 0 0 0 0 5.427l33.919 33.914c.353.357.78.634 1.244.83.472.195.968.3 1.47.3.504 0 1-.105 1.472-.3a3.84 3.84 0 0 0 1.244-.83l33.922-33.914a3.838 3.838 0 0 0 0-5.426z"/><path d="M180.473 74.237H152.96v.019c-2.078.042-3.76 1.728-3.76 3.82 0 2.094 1.682 3.78 3.76 3.825v.016H180.473c9.88 0 17.933 8.044 17.933 17.932v104.939c0 9.887-8.053 17.932-17.933 17.932H75.535c-9.884 0-17.933-8.045-17.933-17.932V99.849c0-9.888 8.049-17.932 17.933-17.932h27.509V81.9c2.081-.046 3.76-1.731 3.76-3.824 0-2.09-1.679-3.771-3.76-3.821v-.02H75.53c-14.122 0-25.612 11.49-25.612 25.613v104.939c0 14.123 11.49 25.612 25.613 25.612h104.938c14.123 0 25.613-11.49 25.613-25.612V99.849c.003-14.123-11.49-25.612-25.61-25.612z"/></g></g></svg>