<svg xmlns="http://www.w3.org/2000/svg" width="72" height="72" viewBox="0 0 256 256"><path fill="none" fill-opacity="0" stroke-miterlimit="10" d="M0 256V0h256v256z" font-family="none" font-size="none" font-weight="none" style="mix-blend-mode:normal" text-anchor="none"/><path fill="#0080ff" stroke-miterlimit="10" d="M38.4 256C17.192 256 0 238.808 0 217.6V38.4C0 17.192 17.192 0 38.4 0h179.2C238.808 0 256 17.192 256 38.4v179.2c0 21.208-17.192 38.4-38.4 38.4z" font-family="none" font-size="none" font-weight="none" style="mix-blend-mode:normal" text-anchor="none"/><g fill="none" stroke-miterlimit="10" font-family="none" font-size="none" font-weight="none" style="mix-blend-mode:normal" text-anchor="none"><path d="M0 256V0h256v256z"/><path d="M0 0h256v256H0z"/></g><path fill="#fff" stroke-miterlimit="10" d="M74.67 174.225v4.12H38.68v-4.12a63.047 63.047 0 0 1 11.67-3.42v-84.33c-4.46-.667-8.35-1.853-11.67-3.56v-4.12h35.99v4.12a30.535 30.535 0 0 1-5.12 2.13 52.467 52.467 0 0 1-5.55 1.43v37.12h44.66v-37.12a70.527 70.527 0 0 1-5.62-1.57 42.52 42.52 0 0 1-5.05-1.99v-4.12h35.98v4.12c-1.707.947-3.577 1.683-5.61 2.21-2.04.52-4.057.97-6.05 1.35v84.33c2.18.38 4.267.857 6.26 1.43 1.993.567 3.793 1.23 5.4 1.99v4.12H97.99v-4.12a51.738 51.738 0 0 1 10.67-3.42v-39.82H64v39.82c1.893.38 3.743.857 5.55 1.43 1.8.567 3.507 1.23 5.12 1.99zm92.87-34.85v31.43c2.56.287 4.977.74 7.25 1.36a66.85 66.85 0 0 1 6.4 2.06v4.12h-38.97v-4.12c1.9-.947 3.843-1.66 5.83-2.14 1.993-.473 3.937-.9 5.83-1.28v-84.33c-2.18-.38-4.217-.88-6.11-1.5a67.83 67.83 0 0 1-5.55-2.06v-4.12h12.8c3.793 0 7.92-.19 12.38-.57 4.453-.38 8.72-.57 12.8-.57 4.64 0 9.19.497 13.65 1.49 4.453 1 8.41 2.683 11.87 5.05 3.467 2.373 6.267 5.527 8.4 9.46 2.133 3.933 3.2 8.84 3.2 14.72 0 5.593-1.093 10.38-3.28 14.36-2.18 3.987-5.093 7.26-8.74 9.82-3.653 2.56-7.803 4.43-12.45 5.61-4.647 1.187-9.433 1.78-14.36 1.78h-2.21c-.993 0-2.06-.023-3.2-.07a68.656 68.656 0 0 1-3.27-.21c-1.04-.093-1.797-.19-2.27-.29zm9.67-54.33c-2.273 0-4.123.05-5.55.15-1.42.093-2.793.283-4.12.57v46.08c.473.187 1.16.303 2.06.35.9.047 1.847.117 2.84.21 1 .1 1.973.15 2.92.15h2.28c3.313 0 6.44-.45 9.38-1.35 2.94-.907 5.523-2.353 7.75-4.34 2.233-1.993 4.013-4.507 5.34-7.54 1.327-3.033 1.99-6.683 1.99-10.95 0-7.773-2.207-13.603-6.62-17.49-4.407-3.893-10.497-5.84-18.27-5.84z" font-family="none" font-size="none" font-weight="none" style="mix-blend-mode:normal" text-anchor="none"/></svg>