<svg xmlns="http://www.w3.org/2000/svg" width="72" height="72" viewBox="0 0 256 256"><path fill="none" fill-opacity="0" stroke-miterlimit="10" d="M0 256V0h256v256z" font-family="none" font-size="none" font-weight="none" style="mix-blend-mode:normal" text-anchor="none"/><path fill="#fa5252" stroke-miterlimit="10" d="M128 236.8c-60.089 0-108.8-48.711-108.8-108.8S67.911 19.2 128 19.2 236.8 67.911 236.8 128 188.089 236.8 128 236.8z" font-family="none" font-size="none" font-weight="none" style="mix-blend-mode:normal" text-anchor="none"/><g fill="none" stroke-miterlimit="10" font-family="none" font-size="none" font-weight="none" style="mix-blend-mode:normal" text-anchor="none"><path d="M0 256V0h256v256z"/><path d="M0 0h256v256H0z"/></g><path fill="#fff" stroke-miterlimit="10" d="M112.585 91.475v-3.3h24.58v3.3c-3.187 2.127-6.297 3.643-9.33 4.55v73.16h-6.49l-41.3-62.69-4.44-8.87h-.34l1.02 8.87v54.05a29.489 29.489 0 0 1 8.77 3.98v3.3h-24.58v-3.3a32.08 32.08 0 0 1 4.38-2.22 51.745 51.745 0 0 1 4.95-1.76v-65.2a92.809 92.809 0 0 1-4.49-1.93 93.623 93.623 0 0 1-4.16-2.05v-3.19h19.23l35.84 54.05 5.23 9.78h.46l-.57-9.78v-46.2c-1.593-.68-3.13-1.4-4.61-2.16a47.782 47.782 0 0 1-4.15-2.39zm40.28 51.77 4.66 16.73c.913.907 2.09 1.683 3.53 2.33s3.6.97 6.48.97c2.433 0 4.71-.323 6.83-.97 2.127-.647 3.967-1.593 5.52-2.84a13.955 13.955 0 0 0 3.7-4.56c.907-1.78 1.36-3.807 1.36-6.08 0-3.033-.93-5.577-2.79-7.63-1.853-2.047-4.167-3.867-6.94-5.46-2.767-1.593-5.78-3.147-9.04-4.66a50.476 50.476 0 0 1-9.05-5.41 28.534 28.534 0 0 1-6.94-7.51c-1.853-2.92-2.78-6.58-2.78-10.98 0-3.18.567-6.023 1.7-8.53a17.865 17.865 0 0 1 4.84-6.37c2.087-1.747 4.57-3.093 7.45-4.04 2.88-.947 6.103-1.42 9.67-1.42 4.627 0 8.857.36 12.69 1.08 3.827.72 6.84 1.61 9.04 2.67 0 1.293-.093 2.793-.28 4.5-.193 1.707-.42 3.47-.68 5.29-.267 1.82-.553 3.583-.86 5.29a77.432 77.432 0 0 1-.91 4.49h-2.96l-4.55-15.59c-1.36-.607-3.083-1.06-5.17-1.36-2.087-.307-4.307-.46-6.66-.46-3.867 0-6.977 1.083-9.33 3.25-2.353 2.16-3.53 5.173-3.53 9.04 0 3.113.93 5.73 2.79 7.85 1.86 2.127 4.193 4.023 7 5.69a116.484 116.484 0 0 0 9.04 4.84 58.064 58.064 0 0 1 9.05 5.4c2.807 2.047 5.14 4.473 7 7.28 1.853 2.807 2.78 6.297 2.78 10.47 0 3.413-.623 6.523-1.87 9.33a19.746 19.746 0 0 1-5.41 7.17c-2.353 1.973-5.237 3.49-8.65 4.55-3.413 1.06-7.28 1.59-11.6 1.59-4.78 0-9.067-.567-12.86-1.7-3.793-1.14-6.487-2.353-8.08-3.64.08-1.293.213-2.85.4-4.67.193-1.82.423-3.697.69-5.63.26-1.933.543-3.81.85-5.63.3-1.82.603-3.377.91-4.67z" font-family="none" font-size="none" font-weight="none" style="mix-blend-mode:normal" text-anchor="none"/></svg>