<svg xmlns="http://www.w3.org/2000/svg" width="72" height="72" viewBox="0 0 256 256"><g stroke-miterlimit="10" font-family="none" font-size="none" font-weight="none" text-anchor="none"><path fill="none" fill-opacity="0" d="M-32 288V-32h320v320z" style="mix-blend-mode:normal" transform="matrix(.8 0 0 .8 25.6 25.6)"/><g fill="#333" style="mix-blend-mode:normal"><path d="M230.4 73.6c0-5.293-4.307-9.6-9.6-9.6H35.2c-5.293 0-9.6 4.307-9.6 9.6v108.8c0 5.293 4.307 9.6 9.6 9.6h25.6a3.201 3.201 0 0 0 0-6.4H35.2a3.21 3.21 0 0 1-3.2-3.2V73.6c0-1.76 1.44-3.2 3.2-3.2h185.6c1.76 0 3.2 1.44 3.2 3.2v108.8c0 1.76-1.44 3.2-3.2 3.2h-25.6a3.201 3.201 0 0 0 0 6.4h25.6c5.293 0 9.6-4.307 9.6-9.6z"/><path d="M83.2 220.8v-64a3.201 3.201 0 0 0-6.4 0v64c0 5.293 4.307 9.6 9.6 9.6h83.2c5.293 0 9.6-4.307 9.6-9.6v-64a3.201 3.201 0 0 0-6.4 0v64c0 1.76-1.44 3.2-3.2 3.2H86.4a3.21 3.21 0 0 1-3.2-3.2zM48 89.6a3.201 3.201 0 0 0 0 6.4h12.8a3.201 3.201 0 0 0 0-6.4zM86.4 89.6H73.6a3.201 3.201 0 0 0 0 6.4h12.8a3.201 3.201 0 0 0 0-6.4zM176 51.2c1.766 0 3.2-1.434 3.2-3.2V35.2c0-5.293-4.307-9.6-9.6-9.6H86.4c-5.293 0-9.6 4.307-9.6 9.6V48a3.201 3.201 0 0 0 6.4 0V35.2c0-1.76 1.44-3.2 3.2-3.2h83.2c1.76 0 3.2 1.44 3.2 3.2V48c0 1.766 1.434 3.2 3.2 3.2z"/><path d="M96 204.8h64a3.201 3.201 0 0 0 0-6.4H96a3.201 3.201 0 0 0 0 6.4zM96 179.2h64a3.201 3.201 0 0 0 0-6.4H96a3.201 3.201 0 0 0 0 6.4z"/></g></g></svg>