<svg xmlns="http://www.w3.org/2000/svg" xmlns:xlink="http://www.w3.org/1999/xlink" viewBox="0,0,256,256" width="72px" height="72px" fill-rule="nonzero"><g transform=""><g fill-opacity="0" fill="#ffffff" fill-rule="nonzero" stroke="none" stroke-width="1" stroke-linecap="butt" stroke-linejoin="miter" stroke-miterlimit="10" stroke-dasharray="" stroke-dashoffset="0" font-family="none" font-weight="none" font-size="none" text-anchor="none" style="mix-blend-mode: normal"><path d="M0,256v-256h256v256z" id="bgRectangle"></path></g><g fill="#b3b3b3" fill-rule="nonzero" stroke="none" stroke-width="1" stroke-linecap="butt" stroke-linejoin="miter" stroke-miterlimit="10" stroke-dasharray="" stroke-dashoffset="0" font-family="none" font-weight="none" font-size="none" text-anchor="none" style="mix-blend-mode: normal"><g transform="scale(0.5,0.5)"><path transform="translate(0,512) scale(0.1,-0.1)" d="M1402,4789c-235,-35 -445,-214 -516,-438l-24,-76l-216,-3l-216,-2v-110v-110l216,-2l217,-3l14,-54c56,-222 263,-417 490,-461c96,-19 243,-9 333,23c190,67 351,239 407,434l18,63h1287h1288v110v110h-1288h-1289l-11,51c-69,299 -396,514 -710,468zM1671,4543c164,-78 260,-240 246,-418c-21,-275 -286,-456 -549,-375c-120,37 -207,113 -261,229c-60,127 -46,301 33,416c87,127 210,187 371,182c82,-3 106,-8 160,-34zM3210,3194c-237,-46 -433,-216 -506,-440l-27,-84h-1123h-1124v-105v-105h1123h1124l17,-62c64,-231 251,-410 483,-462c283,-63 573,79 708,346c18,37 39,92 46,123l12,55h374h373v105v105h-373h-373l-22,73c-29,98 -84,189 -162,267c-122,121 -257,180 -425,185c-55,2 -111,1 -125,-1zM3456,2959c148,-55 249,-178 276,-338c10,-59 9,-81 -5,-147c-67,-309 -419,-441 -674,-253c-251,186 -210,589 72,723c103,48 225,54 331,15zM1945,1589c-247,-37 -461,-223 -530,-461l-16,-58h-485h-484v-110v-110h484h483l17,-63c52,-192 216,-366 409,-435c95,-34 260,-42 357,-17c222,56 405,235 466,453l17,62h1014h1013v110v110h-1012h-1013l-28,83c-68,197 -223,351 -417,411c-89,28 -192,37 -275,25zM2203,1343c177,-84 280,-272 248,-454c-60,-342 -464,-476 -716,-238c-197,186 -162,519 70,667c71,45 140,62 240,59c77,-2 100,-7 158,-34z"></path></g></g></g></svg>