<svg xmlns="http://www.w3.org/2000/svg" width="72" height="72" viewBox="0 0 256 256"><g stroke-miterlimit="10" font-family="none" font-size="none" font-weight="none" text-anchor="none"><path fill="none" fill-opacity="0" d="M-32 288V-32h320v320z" style="mix-blend-mode:normal" transform="matrix(.8 0 0 .8 25.6 25.6)"/><g fill="none" style="mix-blend-mode:normal"><path d="M25.6 230.4V25.6h204.8v204.8z"/><path fill="#fff" d="M59.733 52.907c-7.543 0-13.653 6.11-13.653 13.653v34.133h163.84v-20.48c0-7.543-6.11-13.653-13.653-13.653H108.88l-4.213-7.027a13.648 13.648 0 0 0-11.707-6.626zm-17.053 61.44c-6.888 0-11.82 6.672-9.8 13.253l20.267 65.853a13.666 13.666 0 0 0 13.053 9.64h123.6a13.666 13.666 0 0 0 13.053-9.64L223.12 127.6c2.02-6.58-2.912-13.253-9.8-13.253H128z"/></g></g></svg>