<svg xmlns="http://www.w3.org/2000/svg" xmlns:xlink="http://www.w3.org/1999/xlink" viewBox="0,0,256,256" width="72px" height="72px" fill-rule="nonzero"><g transform="translate(12.8,12.8) scale(0.9,0.9)"><g fill-opacity="0" fill="#ffffff" fill-rule="nonzero" stroke="none" stroke-width="1" stroke-linecap="butt" stroke-linejoin="miter" stroke-miterlimit="10" stroke-dasharray="" stroke-dashoffset="0" font-family="none" font-weight="none" font-size="none" text-anchor="none" style="mix-blend-mode: normal"><path d="M-14.22222,270.22222v-284.44444h284.44444v284.44444z" id="bgRectangle"></path></g><g fill="#ffffff" fill-rule="nonzero" stroke="none" stroke-width="1" stroke-linecap="butt" stroke-linejoin="miter" stroke-miterlimit="10" stroke-dasharray="" stroke-dashoffset="0" font-family="none" font-weight="none" font-size="none" text-anchor="none" style="mix-blend-mode: normal"><g transform="scale(0.50424,0.50424)"><path d="M507.693,313.502c0,-45.385 -25.331,-85.844 -64.995,-112.955c2.797,12.586 4.418,25.521 4.418,38.806c0,102.594 -87.084,188.121 -201.755,206.491c24.25,9.789 51.392,15.51 80.378,15.51c27.269,0 53.077,-5.022 76.31,-13.794c29.462,10.043 61.626,12.649 88.228,12.649c-13.857,-16.59 -23.424,-32.863 -30.289,-47.165c29.526,-26.315 47.705,-61.18 47.705,-99.542z"></path><path d="M398.552,223.558c0,-97.731 -89.372,-177.219 -199.308,-177.219c-109.936,0 -199.244,79.456 -199.244,177.187c0,45.481 20.023,89.436 55.27,122.331c-7.914,19.26 -18.402,37.472 -31.21,54.157c-3.782,4.895 -4.354,11.569 -1.494,17.067c2.765,5.244 8.2,8.518 14.08,8.518h0.763c16.813,-0.795 50.248,-11.982 85.654,-34.452c18.942,3.337 61.372,9.63 76.183,9.63c111.777,-0.032 199.306,-77.835 199.306,-177.219z"></path></g></g></g></svg>