<svg xmlns="http://www.w3.org/2000/svg" width="72" height="72" viewBox="0 0 256 256"><g stroke-miterlimit="10" font-family="none" font-size="none" font-weight="none" text-anchor="none"><path fill="none" fill-opacity="0" d="M0 256V0h256v256z" style="mix-blend-mode:normal"/><path fill="#8c8c8c" d="M1402 4789c-235-35-445-214-516-438l-24-76-216-3-216-2v-220l216-2 217-3 14-54c56-222 263-417 490-461 96-19 243-9 333 23 190 67 351 239 407 434l18 63h2575v220H2123l-11 51c-69 299-396 514-710 468zm269-246c164-78 260-240 246-418-21-275-286-456-549-375-120 37-207 113-261 229-60 127-46 301 33 416 87 127 210 187 371 182 82-3 106-8 160-34zm1539-1349c-237-46-433-216-506-440l-27-84H430v-210h2247l17-62c64-231 251-410 483-462 283-63 573 79 708 346 18 37 39 92 46 123l12 55h747v210h-746l-22 73c-29 98-84 189-162 267-122 121-257 180-425 185-55 2-111 1-125-1zm246-235c148-55 249-178 276-338 10-59 9-81-5-147-67-309-419-441-674-253-251 186-210 589 72 723 103 48 225 54 331 15zM1945 1589c-247-37-461-223-530-461l-16-58H430V850h967l17-63c52-192 216-366 409-435 95-34 260-42 357-17 222 56 405 235 466 453l17 62h2027v220H2665l-28 83c-68 197-223 351-417 411-89 28-192 37-275 25zm258-246c177-84 280-272 248-454-60-342-464-476-716-238-197 186-162 519 70 667 71 45 140 62 240 59 77-2 100-7 158-34z" style="mix-blend-mode:normal" transform="matrix(.05 0 0 -.05 0 256)"/></g></svg>