<svg xmlns="http://www.w3.org/2000/svg" width="72" height="72" viewBox="0 0 256 256"><g stroke-miterlimit="10" font-family="none" font-size="none" font-weight="none" text-anchor="none"><path fill="none" fill-opacity="0" d="M-32 288V-32h320v320z" style="mix-blend-mode:normal" transform="matrix(.8 0 0 .8 25.6 25.6)"/><g fill="none" style="mix-blend-mode:normal"><path d="M25.6 230.4V25.6h204.8v204.8z"/><path fill="#b3b3b3" d="M52.907 46.08c-7.544 0-13.654 6.11-13.654 13.653v20.48h177.494v-6.826c0-7.544-6.11-13.654-13.654-13.654h-101.04l-4.213-7.026a13.648 13.648 0 0 0-11.707-6.627zM46.08 93.867a6.83 6.83 0 0 0-6.827 6.826v81.92c0 7.544 6.11 13.654 13.654 13.654h150.186c7.544 0 13.654-6.11 13.654-13.654v-81.92a6.83 6.83 0 0 0-6.827-6.826z"/></g></g></svg>