<svg xmlns="http://www.w3.org/2000/svg" width="72" height="72" viewBox="0 0 256 256"><g stroke-miterlimit="10" font-family="none" font-size="none" font-weight="none" text-anchor="none"><path fill="none" fill-opacity="0" d="M-22.588 278.588V-22.588h301.176v301.176z" style="mix-blend-mode:normal" transform="matrix(.85 0 0 .85 19.2 19.2)"/><g fill="none" fill-rule="evenodd" stroke="#fa5252" stroke-width="2" style="mix-blend-mode:normal"><path stroke-width="6.8" d="m202.8 69.52-13.94 154.36c0 5.1-4.08 9.52-9.52 9.52H76.66c-5.1 0-9.52-4.08-9.52-9.52L53.2 69.52"/><path stroke-width="6.8" d="M69.52 69.86H48.44c-4.76 0-8.84-4.08-8.84-8.84v-8.84c0-5.1 4.08-8.84 8.84-8.84h158.78c4.76 0 8.84 4.08 8.84 8.84v8.84c0 5.1-4.08 8.84-8.84 8.84h-21.08M127.66 87.2v119M90.26 87.2l4.76 118.66M165.06 87.54l-4.42 118.32M104.2 22.6h47.6V43h-47.6z"/></g></g></svg>