<svg xmlns="http://www.w3.org/2000/svg" width="72" height="72" viewBox="0 0 256 256"><g stroke-miterlimit="10" font-family="none" font-size="none" font-weight="none" text-anchor="none"><path fill="none" fill-opacity="0" d="M0 256V0h256v256z" style="mix-blend-mode:normal"/><path fill="#3a9ae9" d="M39.516 6.891c.357.297.697.608 1.036.925.367.338.746.652 1.135.965.537.435 1.06.89 1.564 1.362 1.933 1.77 3.748 2.559 6.367 2.547l.867.007c.448.003.896.003 1.345.002 2.352-.002 4.168.148 5.923 1.877.516.564.88 1.171 1.17 1.876l.145.349c.181.66.178 1.278.179 1.959l.011.87.01 1.36c.02 2.894.199 5.141 2.277 7.341.336.361.646.735.955 1.12.435.537.89 1.06 1.362 1.564 1.493 1.632 2.292 3.132 2.262 5.37-.134 2.102-1.195 3.483-2.595 4.962-.47.499-.898 1.029-1.326 1.564-.235.287-.477.569-.725.844-1.088 1.215-2 2.552-2.015 4.248l-.004.364-.003.392-.012.833-.015 1.304c-.045 4.839-.045 4.839-1.824 6.732-1.291 1.204-2.663 1.636-4.405 1.63l-.426.005c-.446.005-.892.008-1.338.009-3.217.011-5.559.167-7.984 2.489-.505.482-1.048.914-1.592 1.351-.377.311-.736.636-1.094.967-1.543 1.397-3.064 2.068-5.159 2.042-1.827-.121-3.143-1.011-4.447-2.23a23.004 23.004 0 0 0-1.134-.964 29 29 0 0 1-1.494-1.292c-1.835-1.664-3.69-2.335-6.152-2.332l-.869-.009c-.45-.003-.899-.005-1.349-.006a123.63 123.63 0 0 1-1.316-.011l-.4.002c-1.651-.024-2.955-.63-4.118-1.78-1.364-1.46-1.71-2.902-1.708-4.865l-.009-.866a227.04 227.04 0 0 1-.006-1.346c-.011-3.457-.854-5.265-3.103-7.845-3.663-4.205-3.663-4.205-3.623-6.892.174-2.281 1.454-3.71 2.903-5.342.409-.466.798-.948 1.187-1.43.208-.255.419-.507.633-.757 1.373-1.615 1.955-3.079 1.959-5.19l.011-.871.01-1.358c.003-.44.008-.881.014-1.321v-.403c.027-1.827.603-3.352 1.837-4.705.939-.893 2.201-1.523 3.507-1.534l.383-.004.412-.003.873-.012c.456-.006.912-.011 1.369-.015 4.222-.038 6.252-1.173 9.307-3.968 2.615-2.346 5.866-4.132 9.232-1.881m4.772 21.347-.577.582-.616.625c-.428.435-.857.868-1.287 1.301a1615.117 1615.117 0 0 0-3.427 3.464c-.75.76-1.503 1.52-2.256 2.278-.428.43-.854.862-1.279 1.295l-.982.99-.356.366-.328.328-.284.288c-.271.183-.271.183-.57.156-.354-.153-.558-.363-.826-.64l-.33-.337-.353-.367-.748-.762c-.392-.401-.783-.803-1.174-1.206a257.19 257.19 0 0 0-1.137-1.161l-.35-.365c-.725-.734-1.372-1.315-2.458-1.328-.718.18-1.145.377-1.607.989-.334.561-.469.969-.369 1.608.41 1.378 1.832 2.411 2.822 3.405l.23.231 1.201 1.205c.412.413.823.828 1.234 1.243l.956.959.455.458c.211.213.424.426.637.638l.365.366c.492.418.886.556 1.523.627 1.282-.133 2.092-1.152 2.955-2.019l.435-.432 1.172-1.171.98-.979c.771-.77 1.542-1.54 2.312-2.312.793-.795 1.588-1.588 2.384-2.38.684-.681 1.368-1.364 2.05-2.047l1.223-1.221c.384-.382.767-.765 1.148-1.149l.421-.42c1.145-1.105 1.145-1.105 1.642-2.575-.09-.845-.377-1.357-1.024-1.912-1.578-.931-2.76.309-3.806 1.378" style="mix-blend-mode:normal" transform="scale(3.55556)"/></g></svg>