<svg xmlns="http://www.w3.org/2000/svg" width="72" height="72" viewBox="0 0 256 256"><path fill="none" fill-opacity="0" stroke-miterlimit="10" d="M0 256V0h256v256z" font-family="none" font-size="none" font-weight="none" style="mix-blend-mode:normal" text-anchor="none"/><path fill="#fa5252" stroke-miterlimit="10" d="M128 236.8c-60.089 0-108.8-48.711-108.8-108.8S67.911 19.2 128 19.2 236.8 67.911 236.8 128 188.089 236.8 128 236.8z" font-family="none" font-size="none" font-weight="none" style="mix-blend-mode:normal" text-anchor="none"/><g fill="none" stroke-miterlimit="10" font-family="none" font-size="none" font-weight="none" style="mix-blend-mode:normal" text-anchor="none"><path d="M0 256V0h256v256z"/><path d="M0 0h256v256H0z"/></g><path fill="#fff" stroke-miterlimit="10" d="M130.49 153.585h-5.17l-6.38-35.04v-58.94c2.92-1.46 5.907-2.19 8.96-2.19 3.053 0 6.04.73 8.96 2.19v58.94zm-16.13 32.06c0-3.98 1.263-7.167 3.79-9.56 2.52-2.387 5.77-3.58 9.75-3.58 4.12 0 7.44 1.193 9.96 3.58 2.52 2.393 3.78 5.58 3.78 9.56 0 3.853-1.26 6.973-3.78 9.36-2.52 2.387-5.84 3.58-9.96 3.58-3.98 0-7.23-1.193-9.75-3.58-2.527-2.387-3.79-5.507-3.79-9.36z" font-family="none" font-size="none" font-weight="none" style="mix-blend-mode:normal" text-anchor="none"/></svg>