<svg xmlns="http://www.w3.org/2000/svg" width="72" height="72" viewBox="0 0 256 256"><g stroke-miterlimit="10" font-family="none" font-size="none" font-weight="none" text-anchor="none"><path fill="none" fill-opacity="0" d="M-47.342 303.342V-47.342h350.684v350.684z" style="mix-blend-mode:normal" transform="matrix(.73 0 0 .73 34.56 34.56)"/><g fill="#0080ff" style="mix-blend-mode:normal"><path d="M66.68 192.24H84.2a2.917 2.917 0 0 0 2.92-2.92v-14.6a2.917 2.917 0 0 0-2.92-2.92H66.68a2.917 2.917 0 0 0-2.92 2.92v14.6a2.917 2.917 0 0 0 2.92 2.92zm2.92-14.6h11.68v8.76H69.6zM101.72 192.24h17.52a2.917 2.917 0 0 0 2.92-2.92v-14.6a2.917 2.917 0 0 0-2.92-2.92h-17.52a2.917 2.917 0 0 0-2.92 2.92v14.6a2.917 2.917 0 0 0 2.92 2.92zm2.92-14.6h11.68v8.76h-11.68zM136.76 192.24h17.52a2.917 2.917 0 0 0 2.92-2.92v-14.6a2.917 2.917 0 0 0-2.92-2.92h-17.52a2.917 2.917 0 0 0-2.92 2.92v14.6a2.917 2.917 0 0 0 2.92 2.92zm2.92-14.6h11.68v8.76h-11.68zM66.68 160.12H84.2a2.917 2.917 0 0 0 2.92-2.92v-14.6a2.917 2.917 0 0 0-2.92-2.92H66.68a2.917 2.917 0 0 0-2.92 2.92v14.6a2.917 2.917 0 0 0 2.92 2.92zm2.92-14.6h11.68v8.76H69.6zM101.72 160.12h17.52a2.917 2.917 0 0 0 2.92-2.92v-14.6a2.917 2.917 0 0 0-2.92-2.92h-17.52a2.917 2.917 0 0 0-2.92 2.92v14.6a2.917 2.917 0 0 0 2.92 2.92zm2.92-14.6h11.68v8.76h-11.68zM136.76 160.12h17.52a2.917 2.917 0 0 0 2.92-2.92v-14.6a2.917 2.917 0 0 0-2.92-2.92h-17.52a2.917 2.917 0 0 0-2.92 2.92v14.6a2.917 2.917 0 0 0 2.92 2.92zm2.92-14.6h11.68v8.76h-11.68zM171.8 160.12h17.52a2.917 2.917 0 0 0 2.92-2.92v-14.6a2.917 2.917 0 0 0-2.92-2.92H171.8a2.917 2.917 0 0 0-2.92 2.92v14.6a2.917 2.917 0 0 0 2.92 2.92zm2.92-14.6h11.68v8.76h-11.68zM66.68 128H84.2a2.917 2.917 0 0 0 2.92-2.92v-14.6a2.917 2.917 0 0 0-2.92-2.92H66.68a2.917 2.917 0 0 0-2.92 2.92v14.6a2.917 2.917 0 0 0 2.92 2.92zm2.92-14.6h11.68v8.76H69.6zM101.72 128h17.52a2.917 2.917 0 0 0 2.92-2.92v-14.6a2.917 2.917 0 0 0-2.92-2.92h-17.52a2.917 2.917 0 0 0-2.92 2.92v14.6a2.917 2.917 0 0 0 2.92 2.92zm2.92-14.6h11.68v8.76h-11.68zM136.76 128h17.52a2.917 2.917 0 0 0 2.92-2.92v-14.6a2.917 2.917 0 0 0-2.92-2.92h-17.52a2.917 2.917 0 0 0-2.92 2.92v14.6a2.917 2.917 0 0 0 2.92 2.92zm2.92-14.6h11.68v8.76h-11.68zM171.8 128h17.52a2.917 2.917 0 0 0 2.92-2.92v-14.6a2.917 2.917 0 0 0-2.92-2.92H171.8a2.917 2.917 0 0 0-2.92 2.92v14.6a2.917 2.917 0 0 0 2.92 2.92zm2.92-14.6h11.68v8.76h-11.68z"/><path d="M209.76 46.24h-20.44v-2.92a8.76 8.76 0 0 0-8.76-8.76 8.76 8.76 0 0 0-8.76 8.76v2.92H84.2v-2.92a8.76 8.76 0 0 0-8.76-8.76 8.76 8.76 0 0 0-8.76 8.76v2.92H46.24a11.673 11.673 0 0 0-11.68 11.68v151.84c0 6.456 5.224 11.68 11.68 11.68h163.52c6.456 0 11.68-5.224 11.68-11.68V57.92c0-6.456-5.224-11.68-11.68-11.68zm-32.12-2.92a2.917 2.917 0 0 1 2.92-2.92 2.917 2.917 0 0 1 2.92 2.92V63.76a2.917 2.917 0 0 1-2.92 2.92 2.917 2.917 0 0 1-2.92-2.92V52.08zm-105.12 0a2.917 2.917 0 0 1 2.92-2.92 2.917 2.917 0 0 1 2.92 2.92V63.76a2.917 2.917 0 0 1-2.92 2.92 2.917 2.917 0 0 1-2.92-2.92V52.08zM215.6 209.76a5.842 5.842 0 0 1-5.84 5.84H46.24a5.842 5.842 0 0 1-5.84-5.84V84.2h175.2zm0-131.4H40.4V57.92a5.842 5.842 0 0 1 5.84-5.84h20.44v11.68a8.76 8.76 0 0 0 8.76 8.76 8.76 8.76 0 0 0 8.76-8.76V52.08h87.6v11.68a8.76 8.76 0 0 0 8.76 8.76 8.76 8.76 0 0 0 8.76-8.76V52.08h20.44a5.842 5.842 0 0 1 5.84 5.84z"/></g></g></svg>