<svg xmlns="http://www.w3.org/2000/svg" width="72" height="72" viewBox="0 0 256 256"><path fill="none" fill-opacity="0" stroke-miterlimit="10" d="M0 256V0h256v256z" font-family="none" font-size="none" font-weight="none" style="mix-blend-mode:normal" text-anchor="none"/><g fill="none" stroke-miterlimit="10" font-family="none" font-size="none" font-weight="none" style="mix-blend-mode:normal" text-anchor="none"><path d="M0 256V0h256v256z"/><path fill="#333" d="M128 22.016C69.522 22.016 22.016 69.522 22.016 128c0 58.478 47.506 105.984 105.984 105.984 58.478 0 105.984-47.506 105.984-105.984 0-58.478-47.506-105.984-105.984-105.984zm0 9.216c53.497 0 96.768 43.271 96.768 96.768S181.497 224.768 128 224.768 31.232 181.497 31.232 128 74.503 31.232 128 31.232zm36.819 55.233a4.609 4.609 0 0 0-3.213 1.413L128 121.484 94.394 87.878a4.609 4.609 0 1 0-6.516 6.516L121.484 128l-33.606 33.606a4.608 4.608 0 1 0 6.516 6.516L128 134.516l33.606 33.606a4.608 4.608 0 1 0 6.516-6.516L134.516 128l33.606-33.606a4.609 4.609 0 0 0-3.303-7.929z"/></g></svg>