<svg xmlns="http://www.w3.org/2000/svg" width="72" height="72" viewBox="0 0 256 256"><g stroke-miterlimit="10" font-family="none" font-size="none" font-weight="none" text-anchor="none"><path fill="none" fill-opacity="0" d="M0 256V0h256v256z" style="mix-blend-mode:normal"/><path fill="none" stroke="#fff" stroke-width="5.689" d="M128 252.272C59.367 252.272 3.728 196.633 3.728 128 3.728 59.367 59.367 3.728 128 3.728c68.633 0 124.272 55.639 124.272 124.272 0 68.633-55.639 124.272-124.272 124.272z" style="mix-blend-mode:normal"/><path fill="#0080ff" d="m15.078 12.94 3.457 1.572A2.5 2.5 0 0 1 20 16.788v.712a2.5 2.5 0 0 1-2.5 2.5h-11A2.5 2.5 0 0 1 4 17.5v-.712a2.5 2.5 0 0 1 1.465-2.276l3.457-1.571a5 5 0 1 1 6.156 0zm-5.117.627L5.88 15.422A1.5 1.5 0 0 0 5 16.788v.712A1.5 1.5 0 0 0 6.5 19h11a1.5 1.5 0 0 0 1.5-1.5v-.712a1.5 1.5 0 0 0-.88-1.366l-4.081-1.855A4.982 4.982 0 0 1 12 14a4.982 4.982 0 0 1-2.039-.433zM12 13a4 4 0 1 0 0-8 4 4 0 0 0 0 8z" style="mix-blend-mode:normal" transform="scale(10.66667)"/></g></svg>