<svg xmlns="http://www.w3.org/2000/svg" width="8" height="8" viewBox="0 0 256 256"><path fill="none" d="M0 256V0h256v256z" font-family="none" font-size="none" font-weight="none" style="mix-blend-mode:normal" text-anchor="none"/><path fill="#bfbfbf" fill-rule="evenodd" d="M0 .5c0 .275.225.5.5.5S1 .775 1 .5.775 0 .5 0 0 .225 0 .5m4 0c0 .275.225.5.5.5S5 .775 5 .5 4.775 0 4.5 0 4 .225 4 .5m-2 2c0 .275.225.5.5.5s.5-.225.5-.5-.225-.5-.5-.5-.5.225-.5.5m4 0c0 .275.225.5.5.5s.5-.225.5-.5-.225-.5-.5-.5-.5.225-.5.5m-6 2c0 .275.225.5.5.5s.5-.225.5-.5S.775 4 .5 4s-.5.225-.5.5m4 0c0 .275.225.5.5.5s.5-.225.5-.5-.225-.5-.5-.5-.5.225-.5.5m-2 2c0 .275.225.5.5.5s.5-.225.5-.5-.225-.5-.5-.5-.5.225-.5.5m4 0c0 .275.225.5.5.5s.5-.225.5-.5-.225-.5-.5-.5-.5.225-.5.5" font-family="none" font-size="none" font-weight="none" style="mix-blend-mode:normal" text-anchor="none" transform="scale(32)"/></svg>