<svg xmlns="http://www.w3.org/2000/svg" width="72" height="72" viewBox="0 0 256 256"><g stroke-miterlimit="10" font-family="none" font-size="none" font-weight="none" text-anchor="none"><path fill="none" fill-opacity="0" d="M4.923 251.077V4.923h246.154v246.154z" style="mix-blend-mode:normal" transform="matrix(1.04 0 0 1.04 -5.12 -5.12)"/><path fill="#8c8c8c" fill-rule="evenodd" d="M3 6a1 1 0 0 1 1-1h16a1 1 0 1 1 0 2H4a1 1 0 0 1-1-1zm0 6a1 1 0 0 1 1-1h16a1 1 0 1 1 0 2H4a1 1 0 0 1-1-1zm0 6a1 1 0 0 1 1-1h16a1 1 0 1 1 0 2H4a1 1 0 0 1-1-1z" style="mix-blend-mode:normal" transform="matrix(11.09334 0 0 11.09334 -5.12 -5.12)"/></g></svg>