<svg xmlns="http://www.w3.org/2000/svg" width="72" height="72" viewBox="0 0 256 256"><path fill="none" fill-opacity="0" stroke-miterlimit="10" d="M0 256V0h256v256z" font-family="none" font-size="none" font-weight="none" style="mix-blend-mode:normal" text-anchor="none"/><path fill="#0080ff" stroke-miterlimit="10" d="M303 650C73 604-13 321 152 153 334-33 653 99 653 360c0 184-170 326-350 290zm106-84c67-35 65-143-4-174-51-23-107-7-131 39-47 91 44 182 135 135zm94-295c35-17 47-28 47-45 0-50-101-106-190-106-88 0-190 56-190 104 0 69 223 100 333 47z" font-family="none" font-size="none" font-weight="none" style="mix-blend-mode:normal" text-anchor="none" transform="matrix(.35556 0 0 -.35556 0 256)"/></svg>