<svg xmlns="http://www.w3.org/2000/svg" width="72" height="72" viewBox="0 0 256 256"><g stroke-miterlimit="10" font-family="none" font-size="none" font-weight="none" text-anchor="none"><path fill="none" fill-opacity="0" d="M-22.588 278.588V-22.588h301.176v301.176z" style="mix-blend-mode:normal" transform="matrix(.85 0 0 .85 19.2 19.2)"/><path fill="#8c8c8c" fill-rule="evenodd" d="M24.5 3.891C12.096 7.12 3.759 17.383 3.731 29.46c-.008 3.422.72 7.82 1.678 10.146 1.622 3.934 1.608 4.329-.348 9.474-1.661 4.372-1.801 5.608-.755 6.654 1.045 1.046 2.165.984 6.029-.332 2.61-.89 5.964-1.373 7.455-1.074 1.49.298 4.885 1.015 7.544 1.593 15.729 3.417 30.975-9.352 30.948-25.918-.012-7.593-1.848-12.41-6.834-17.929C43.518 5.51 32.35 1.847 24.5 3.891m34.542 25.744c-.106 10.488-7.314 21.922-16.559 26.268-2.496 1.173-7.314 2.424-10.705 2.778l-6.166.644 3.896 3.369c2.166 1.872 6.361 4.087 9.444 4.987 5.14 1.501 6.029 1.496 12.091-.059 5.972-1.532 6.928-1.543 10.942-.127 3.669 1.294 4.619 1.33 5.733.215 1.115-1.114 1.067-1.981-.291-5.231-1.509-3.612-1.504-4.42.069-11.1 1.557-6.613 1.568-7.647.131-12.589-.895-3.081-3.059-7.077-5.054-9.338l-3.49-3.952-.041 4.135" style="mix-blend-mode:normal" transform="matrix(3.02223 0 0 3.02223 19.2 19.2)"/></g></svg>