<svg xmlns="http://www.w3.org/2000/svg" width="72" height="72" viewBox="0 0 256 256"><g stroke-miterlimit="10" font-family="none" font-size="none" font-weight="none" text-anchor="none"><path fill="none" fill-opacity="0" d="M6.095 249.905V6.095h243.81v243.81z" style="mix-blend-mode:normal" transform="matrix(1.05 0 0 1.05 -6.4 -6.4)"/><g stroke="#0080ff" stroke-linecap="round" stroke-linejoin="round" stroke-width="2" style="mix-blend-mode:normal"><path stroke-width="22.4" d="M206.4 139.2c6.186 0 11.2-5.014 11.2-11.2 0-6.186-5.014-11.2-11.2-11.2-6.186 0-11.2 5.014-11.2 11.2 0 6.186 5.014 11.2 11.2 11.2zM128 139.2c6.186 0 11.2-5.014 11.2-11.2 0-6.186-5.014-11.2-11.2-11.2-6.186 0-11.2 5.014-11.2 11.2 0 6.186 5.014 11.2 11.2 11.2zM49.6 139.2c6.186 0 11.2-5.014 11.2-11.2 0-6.186-5.014-11.2-11.2-11.2-6.186 0-11.2 5.014-11.2 11.2 0 6.186 5.014 11.2 11.2 11.2z"/></g></g></svg>