<svg xmlns="http://www.w3.org/2000/svg" width="72" height="72" viewBox="0 0 256 256"><g stroke-miterlimit="10" font-family="none" font-size="none" font-weight="none" text-anchor="none"><path fill="none" fill-opacity="0" d="M-19.126 275.126V-19.126h294.252v294.252z" style="mix-blend-mode:normal" transform="matrix(.87 0 0 .87 16.64 16.64)"/><path fill="#8c8c8c" d="M28 50.828c.61 0 1.172-.07 1.805-.117l1.36 2.578c.257.516.773.797 1.405.703.586-.117 1.008-.539 1.078-1.172l.422-2.836c1.149-.304 2.297-.75 3.422-1.242l2.11 1.899c.445.422 1.007.515 1.593.187.516-.281.727-.844.61-1.453l-.586-2.813a21.53 21.53 0 0 0 2.789-2.32l2.625 1.102c.586.234 1.125.117 1.57-.422.399-.422.445-1.031.117-1.547l-1.523-2.438c.703-.984 1.266-2.039 1.805-3.164l2.86.141c.608.023 1.124-.305 1.335-.89.187-.587 0-1.149-.492-1.524l-2.227-1.781c.305-1.125.54-2.344.633-3.61l2.719-.843c.586-.211.96-.657.96-1.29 0-.609-.374-1.054-.96-1.265l-2.72-.867c-.093-1.266-.327-2.438-.632-3.586l2.226-1.805c.493-.351.68-.89.493-1.476-.211-.586-.727-.915-1.336-.891l-2.86.117c-.538-1.125-1.1-2.18-1.804-3.164l1.524-2.437c.327-.493.28-1.102-.118-1.524-.445-.539-.984-.68-1.57-.422l-2.625 1.055a25.884 25.884 0 0 0-2.79-2.297l.587-2.789c.117-.633-.094-1.195-.61-1.477-.586-.304-1.148-.257-1.593.211l-2.11 1.852a27.105 27.105 0 0 0-3.422-1.219l-.422-2.836c-.07-.61-.492-1.054-1.078-1.148-.633-.094-1.148.164-1.406.68l-1.36 2.578c-.632-.047-1.195-.094-1.804-.094-.633 0-1.195.047-1.852.094l-1.335-2.579c-.258-.515-.774-.773-1.43-.68-.586.095-.985.54-1.078 1.15l-.399 2.812c-1.172.351-2.32.75-3.422 1.242l-2.109-1.852c-.469-.468-1.031-.515-1.594-.21-.515.28-.726.843-.61 1.476l.587 2.79a24.044 24.044 0 0 0-2.813 2.296l-2.601-1.055c-.586-.258-1.149-.117-1.594.422a1.235 1.235 0 0 0-.117 1.5L9.18 15.04c-.703.984-1.266 2.04-1.805 3.164l-2.883-.117c-.61-.023-1.125.305-1.312.89-.188.586-.024 1.126.468 1.477l2.25 1.805c-.304 1.148-.562 2.32-.632 3.586l-2.72.867c-.609.187-.937.633-.937 1.266 0 .632.328 1.078.938 1.289l2.719.867c.07 1.242.328 2.46.632 3.586L3.648 35.5c-.492.375-.656.938-.468 1.524.187.585.703.913 1.312.89l2.883-.14c.54 1.124 1.102 2.18 1.781 3.163l-1.5 2.438c-.351.516-.304 1.125.094 1.547.445.539 1.008.656 1.594.422l2.601-1.102c.868.867 1.828 1.64 2.813 2.32l-.586 2.813c-.117.61.094 1.172.61 1.453.585.328 1.148.235 1.593-.187l2.086-1.899c1.125.492 2.273.938 3.445 1.242l.399 2.836c.093.633.492 1.055 1.078 1.172.656.094 1.172-.187 1.43-.703l1.335-2.578c.633.047 1.22.117 1.852.117zM33.883 26.5c-1.102-2.953-3.258-4.57-5.953-4.57-.399 0-.867.047-1.617.21l-6.727-11.484C22.094 9.414 24.953 8.734 28 8.734c10.219 0 18.234 7.758 18.961 17.766zM8.969 28c0-6.516 3.07-12.258 7.922-15.726l6.773 11.554c-1.266 1.313-1.851 2.742-1.851 4.266 0 1.476.562 2.836 1.851 4.195l-6.937 11.344C11.992 40.14 8.969 34.469 8.969 28zm16.148.07c0-1.593 1.36-2.836 2.86-2.836 1.593 0 2.906 1.243 2.906 2.836 0 1.57-1.313 2.86-2.906 2.86-1.5 0-2.86-1.29-2.86-2.86zM28 47.266c-3.117 0-6.023-.727-8.578-1.992L26.312 34c.727.188 1.22.234 1.618.234 2.719 0 4.875-1.664 5.953-4.687H46.96c-.75 9.96-8.766 17.719-18.961 17.719z" style="mix-blend-mode:normal" transform="matrix(3.97714 0 0 3.97714 16.64 16.64)"/></g></svg>