<svg xmlns="http://www.w3.org/2000/svg" width="72" height="72" viewBox="0 0 256 256"><g stroke-miterlimit="10" font-family="none" font-size="none" font-weight="none" text-anchor="none"><path fill="none" fill-opacity="0" d="M11.636 244.364V11.636h232.728v232.728z" style="mix-blend-mode:normal" transform="matrix(1.1 0 0 1.1 -12.8 -12.8)"/><path fill="#8c8c8c" d="M834.133 149.333H755.2C473.6 153.6 151.467 514.133 149.333 755.2v78.933c0 21.334 17.067 40.534 40.534 40.534l160-2.134c21.333 0 40.533-19.2 40.533-40.533l4.267-174.933L294.4 571.733c0-55.466 224-279.466 281.6-281.6L667.733 390.4l168.534-4.267c21.333 0 40.533-19.2 40.533-40.533l-2.133-155.733c0-23.467-17.067-40.534-40.534-40.534z" style="mix-blend-mode:normal" transform="rotate(-90 128.293 140.8) scale(.275)"/></g></svg>