<svg xmlns="http://www.w3.org/2000/svg" width="72" height="72" viewBox="0 0 256 256"><g stroke-miterlimit="10" font-family="none" font-size="none" font-weight="none" text-anchor="none"><path fill="none" fill-opacity="0" d="M-47.342 303.342V-47.342h350.684v350.684z" style="mix-blend-mode:normal" transform="matrix(.73 0 0 .73 34.56 34.56)"/><g fill="none" style="mix-blend-mode:normal"><path fill="#0080ff" d="M178.51 218.533a24.502 24.502 0 0 1-5.192-.571 176.03 176.03 0 0 1-86.276-45.422 169.801 169.801 0 0 1-46.72-84.356 23.775 23.775 0 0 1 7.008-22.218L68.095 45.98a10.382 10.382 0 0 1 7.994-2.803 10.382 10.382 0 0 1 7.527 4.517l25.956 38.362a8.306 8.306 0 0 1-.571 9.863l-13.03 15.573a98.32 98.32 0 0 0 21.647 30.576 99.98 99.98 0 0 0 31.51 21.232l16.144-12.823a8.513 8.513 0 0 1 9.656-.622l39.193 25.332a10.382 10.382 0 0 1 2.128 16.145l-20.245 20.037a24.606 24.606 0 0 1-17.495 7.164zM75.257 53.456 54.494 73.44a13.185 13.185 0 0 0-3.893 12.46 159.367 159.367 0 0 0 43.657 79.215 165.596 165.596 0 0 0 81.189 42.723 14.276 14.276 0 0 0 12.978-3.841l20.245-20.038-37.843-24.45-17.339 13.808a5.191 5.191 0 0 1-4.775.883 104.134 104.134 0 0 1-38.207-24.658 101.174 101.174 0 0 1-25.28-37.376 5.191 5.191 0 0 1 1.245-4.931l14.016-16.768z"/><path d="M34.56 34.56h186.88v186.88H34.56z"/></g></g></svg>