<svg xmlns="http://www.w3.org/2000/svg" xmlns:xlink="http://www.w3.org/1999/xlink" viewBox="0,0,256,256" width="72px" height="72px" fill-rule="nonzero"><g transform=""><g fill-opacity="0" fill="#ffffff" fill-rule="nonzero" stroke="none" stroke-width="1" stroke-linecap="butt" stroke-linejoin="miter" stroke-miterlimit="10" stroke-dasharray="" stroke-dashoffset="0" font-family="none" font-weight="none" font-size="none" text-anchor="none" style="mix-blend-mode: normal"><path d="M0,256v-256h256v256z" id="bgRectangle"></path></g><g fill="#0050ff" fill-rule="nonzero" stroke="none" stroke-width="1" stroke-linecap="butt" stroke-linejoin="miter" stroke-miterlimit="10" stroke-dasharray="" stroke-dashoffset="0" font-family="none" font-weight="none" font-size="none" text-anchor="none" style="mix-blend-mode: normal"><g transform="scale(3.55556,3.55556)"><path transform="translate(0,72) scale(0.1,-0.1)" d="M96,625c-51,-49 -55,-67 -31,-134c24,-68 84,-150 180,-246c125,-126 236,-195 313,-195c31,0 112,84 112,116c0,15 -20,34 -70,68c-38,25 -77,46 -85,46c-9,0 -34,-9 -56,-21l-41,-20l-89,90l-90,89l20,41c12,22 21,47 21,56c0,8 -21,47 -46,85c-57,85 -73,88 -138,25zM219,587c22,-35 41,-69 41,-76c0,-6 -9,-29 -20,-51l-20,-39l43,-50c24,-28 69,-73 101,-101l57,-50l39,20c22,11 45,20 51,20c21,0 139,-82 139,-96c0,-8 -16,-32 -36,-54c-52,-58 -87,-55 -204,18c-63,40 -206,175 -255,243c-48,64 -85,142 -85,177c0,22 10,39 40,66c22,20 46,36 54,36c7,0 32,-28 55,-63z"></path></g></g></g></svg>