<svg xmlns="http://www.w3.org/2000/svg" xmlns:xlink="http://www.w3.org/1999/xlink" viewBox="0,0,256,256" width="72px" height="72px" fill-rule="nonzero"><g transform=""><g fill-opacity="0" fill="#ffffff" fill-rule="nonzero" stroke="none" stroke-width="1" stroke-linecap="butt" stroke-linejoin="miter" stroke-miterlimit="10" stroke-dasharray="" stroke-dashoffset="0" font-family="none" font-weight="none" font-size="none" text-anchor="none" style="mix-blend-mode: normal"><path d="M0,256v-256h256v256z" id="bgRectangle"></path></g><g fill="#0050ff" fill-rule="nonzero" stroke="none" stroke-width="1" stroke-linecap="butt" stroke-linejoin="miter" stroke-miterlimit="10" stroke-dasharray="" stroke-dashoffset="0" font-family="none" font-weight="none" font-size="none" text-anchor="none" style="mix-blend-mode: normal"><g transform="scale(3.55556,3.55556)"><path transform="translate(0,72) scale(0.1,-0.1)" d="M140,400c-11,-11 -20,-29 -20,-40c0,-26 34,-60 60,-60c26,0 60,34 60,60c0,11 -9,29 -20,40c-11,11 -29,20 -40,20c-11,0 -29,-9 -40,-20zM320,400c-11,-11 -20,-29 -20,-40c0,-11 9,-29 20,-40c11,-11 29,-20 40,-20c26,0 60,34 60,60c0,11 -9,29 -20,40c-11,11 -29,20 -40,20c-11,0 -29,-9 -40,-20zM500,400c-11,-11 -20,-29 -20,-40c0,-11 9,-29 20,-40c11,-11 29,-20 40,-20c26,0 60,34 60,60c0,11 -9,29 -20,40c-11,11 -29,20 -40,20c-11,0 -29,-9 -40,-20z"></path></g></g></g></svg>