<svg xmlns="http://www.w3.org/2000/svg" width="72" height="72" viewBox="0 0 256 256"><g stroke-miterlimit="10" font-family="none" font-size="none" font-weight="none" text-anchor="none"><path fill="none" fill-opacity="0" d="M-9.634 265.634V-9.634h275.268v275.268z" style="mix-blend-mode:normal" transform="matrix(.93 0 0 .93 8.96 8.96)"/><path fill="#0080ff" d="M205 651C115 611 66 532 66 430c0-96 44-168 129-213 56-30 155-30 211 0l41 21 94-94c88-89 94-93 111-77 18 16 15 21-73 109l-92 92 27 53c48 97 31 204-44 279-69 70-178 91-265 51zm214-34c155-102 125-334-51-393-55-18-109-14-162 12-166 84-161 316 9 396 59 27 150 21 204-15z" style="mix-blend-mode:normal" transform="matrix(.33067 0 0 -.33067 8.96 247.04)"/></g></svg>