<svg xmlns="http://www.w3.org/2000/svg" xmlns:xlink="http://www.w3.org/1999/xlink" viewBox="0,0,256,256" width="72px" height="72px" fill-rule="nonzero"><g transform=""><g fill-opacity="0" fill="#ffffff" fill-rule="nonzero" stroke="none" stroke-width="1" stroke-linecap="butt" stroke-linejoin="miter" stroke-miterlimit="10" stroke-dasharray="" stroke-dashoffset="0" font-family="none" font-weight="none" font-size="none" text-anchor="none" style="mix-blend-mode: normal"><path d="M0,256v-256h256v256z" id="bgRectangle"></path></g><g fill="#0050ff" fill-rule="nonzero" stroke="none" stroke-width="1" stroke-linecap="butt" stroke-linejoin="miter" stroke-miterlimit="10" stroke-dasharray="" stroke-dashoffset="0" font-family="none" font-weight="none" font-size="none" text-anchor="none" style="mix-blend-mode: normal"><g transform="scale(3.55556,3.55556)"><path transform="translate(0,72) scale(0.1,-0.1)" d="M205,651c-90,-40 -139,-119 -139,-221c0,-96 44,-168 129,-213c56,-30 155,-30 211,0l41,21l94,-94c88,-89 94,-93 111,-77c18,16 15,21 -73,109l-92,92l27,53c48,97 31,204 -44,279c-69,70 -178,91 -265,51zM419,617c155,-102 125,-334 -51,-393c-55,-18 -109,-14 -162,12c-166,84 -161,316 9,396c59,27 150,21 204,-15z"></path></g></g></g></svg>